<?xml version="1.0" encoding="UTF-8"?>
<svg width="50px" height="50px" viewBox="0 0 50 50" version="1.1" xmlns="http://www.w3.org/2000/svg" xmlns:xlink="http://www.w3.org/1999/xlink">
    <!-- Generator: Sketch 49.2 (51160) - http://www.bohemiancoding.com/sketch -->
    <title>BalsamiqLogo</title>
    <desc>Created with Sketch.</desc>
    <defs></defs>
    <g id="BalsamiqLogo" stroke="none" stroke-width="1" fill="none" fill-rule="evenodd">
        <path d="M25,50 C11.1928813,50 0,38.8071187 0,25 C0,11.1928813 11.1928813,0 25,0 C38.8071187,0 50,11.1928813 50,25 C50,38.8071187 38.8071187,50 25,50 Z M25.6863728,6.75005744 C22.2970915,7.26394257 22.5786062,6.75005744 17.6280088,7.18376608 C12.6774114,7.61747472 5.27391873,15.5098231 6.05746653,29.2991728 C6.84101432,43.0885225 18.217393,46.5986903 28.0123149,44.3841912 C37.8072367,42.1696921 45.823666,32.6591222 43.3423356,21.7086972 C40.8610051,10.7582721 32.7963222,7.71915211 31.5061108,7.18376608 C30.2158994,6.64838006 28.2535833,5.87502872 27.2442772,5 C26.1476549,5.30560662 25.4440512,5.65420113 25.1334661,6.04578355 C25.7443688,6.47856205 25.928671,6.71332002 25.6863728,6.75005744 Z M30.413797,11.275563 C31.1266876,11.0166782 31.715976,10.7557828 32.1816623,10.4928768 C37.0503051,12.644761 39.988705,16.727271 40.9968622,22.7404067 C42.509098,31.7601103 34.377779,42.4322151 25.6228962,42.0961627 C16.8680134,41.7601103 8.19814897,40.9478401 8.61089024,25.7203585 C9.02363151,10.4928768 18.1329491,8.47369026 23.6301343,8.47369026 C27.7305479,8.47369026 29.0190359,10.4928768 30.413797,11.275563 Z M17.2228623,20.1173162 C15.2835241,21.6743299 18.2885729,24.2283571 19.5732185,23.0337914 C20.857864,21.8392257 19.1622005,18.5603026 17.2228623,20.1173162 Z M30.4892258,23.6802045 C32.269729,23.6802045 33.433849,20 30.4892258,20 C28.4008182,20 28.4496463,23.6802045 30.4892258,23.6802045 Z M14.2835478,26.1810662 C13.5786994,28.0592256 15.2107077,34.8687385 24.66929,34.8687385 C34.1278722,34.8687385 34.5254122,28.3088494 34.3829274,27.6177619 C34.272224,27.0808221 31.2134076,33.0566406 24.1629136,32.4126838 C19.2666477,31.9654834 16.8283548,30.5575023 14.2835478,26.1810662 Z" id="Combined-Shape" fill="#FFFFFF"></path>
    </g>
</svg>