<?xml version="1.0" encoding="UTF-8"?>
<svg width="600px" height="600px" viewBox="0 0 600 600" version="1.1" xmlns="http://www.w3.org/2000/svg" xmlns:xlink="http://www.w3.org/1999/xlink">
    <!-- Generator: Sketch 49.2 (51160) - http://www.bohemiancoding.com/sketch -->
    <title>CodeRole</title>
    <desc>Created with Sketch.</desc>
    <defs></defs>
    <g id="CodeRole" stroke="none" stroke-width="1" fill="none" fill-rule="evenodd">
        <path d="M300,600 C134.314575,600 0,465.685425 0,300 C0,134.314575 134.314575,0 300,0 C465.685425,0 600,134.314575 600,300 C600,465.685425 465.685425,600 300,600 Z M199.992337,163.465592 C196.221324,159.977264 190.313196,160.219768 186.821747,164.006563 L67.4601668,293.684079 C64.1799444,297.253242 64.1799444,302.750001 67.4601668,306.319164 L186.821747,435.990462 C188.660659,437.986457 191.164314,439 193.680394,439 C195.935547,439 198.209337,438.185435 199.998549,436.531433 C203.781988,433.043104 204.018065,427.142171 200.539041,423.355376 L86.9799755,300.001621 L200.526616,176.647867 C204.011852,172.861072 203.775775,166.960139 199.992337,163.465592 Z M533.534426,293.684079 L414.174292,164.006563 C410.682886,160.219768 404.787254,159.977264 401.003862,163.465592 C397.220469,166.953921 396.984395,172.854854 400.463377,176.641649 L514.014854,300.001621 L400.463377,423.355376 C396.978183,427.142171 397.220469,433.043104 401.003862,436.531433 C402.793052,438.185435 405.060603,439 407.321941,439 C409.831778,439 412.341615,437.986457 414.180505,435.990462 L533.540639,306.319164 C536.820822,302.750001 536.820822,297.253242 533.534426,293.684079 Z M369.115794,126.655763 C364.335523,124.766165 358.922022,127.097084 357.028538,131.889454 L226.657521,461.238995 C224.764037,466.025149 227.098299,471.445313 231.884778,473.341127 C233.01466,473.788663 234.169375,474 235.317881,474 C239.024143,474 242.525536,471.768533 243.978242,468.107437 L374.349259,138.757895 C376.230326,133.977957 373.896064,128.551578 369.115794,126.655763 Z" id="Combined-Shape" fill="#FFFFFF"></path>
    </g>
</svg>