<?xml version="1.0" encoding="UTF-8"?>
<svg width="600px" height="600px" viewBox="0 0 600 600" version="1.1" xmlns="http://www.w3.org/2000/svg" xmlns:xlink="http://www.w3.org/1999/xlink">
    <!-- Generator: Sketch 49.2 (51160) - http://www.bohemiancoding.com/sketch -->
    <title>DesignRole</title>
    <desc>Created with Sketch.</desc>
    <defs></defs>
    <g id="DesignRole" stroke="none" stroke-width="1" fill="none" fill-rule="evenodd">
        <path d="M300,600 C134.314575,600 0,465.685425 0,300 C0,134.314575 134.314575,0 300,0 C465.685425,0 600,134.314575 600,300 C600,465.685425 465.685425,600 300,600 Z M281.398304,406.17575 L420.784272,114.952173 C425.804849,104.456278 423.035491,96.8529459 418.012544,93.9529459 C412.989597,91.0529459 405.020239,92.456278 398.440816,102.052173 L215.776784,368.635558 C208.883259,370.775492 185.476853,379.316578 176.898134,400.575354 C170.413198,416.807594 174.134925,436.161372 188.05351,458.053677 C188.176715,458.24028 197.140301,473.114893 192.972352,484.333993 C191.101775,489.373928 186.856326,492.92726 179.949404,495.290399 C177.527161,496.085848 176.027161,498.683924 176.636007,501.229372 C177.002032,502.595397 177.877865,503.67841 179.003698,504.32841 C179.956326,504.87841 181.108954,505.082 182.238377,504.925782 C185.180235,504.430334 254.888428,493.292204 277.861633,453.901445 C286.284838,439.712026 287.386057,423.604658 281.398304,406.17575 Z M249.613904,345.807432 L283.926276,365.61769 L269.611574,394.013346 L232.179895,372.402156 L249.613904,345.807432 Z M402.243055,116.290847 C405.081987,112.029905 407.43178,111.241105 407.833427,111.365723 C408.142173,111.65125 408.633948,114.080631 406.363331,118.669689 L292.157505,351.916527 L257.277242,331.778398 L402.243055,116.290847 Z M206.836443,478.369672 C207.16717,477.621185 207.497897,476.872699 207.787945,476.194669 C212.294201,463.295729 202.225668,447.712566 201.703851,447.035522 C190.722609,430.925406 188.974615,419.539166 193.148438,408.796875 C198.411692,395.113727 213.15753,387.324407 218.304584,385.786786 L265.461215,413.01268 C270.251589,425.266667 269.933702,436.356319 264.366032,445.824155 C253.626881,464.424909 225.403032,473.964242 206.836443,478.369672 Z" id="Combined-Shape" fill="#FFFFFF"></path>
    </g>
</svg>