<?xml version="1.0" encoding="UTF-8"?>
<svg width="50px" height="50px" viewBox="0 0 50 50" version="1.1" xmlns="http://www.w3.org/2000/svg" xmlns:xlink="http://www.w3.org/1999/xlink">
    <!-- Generator: Sketch 49.2 (51160) - http://www.bohemiancoding.com/sketch -->
    <title>EsriLogo</title>
    <desc>Created with Sketch.</desc>
    <defs></defs>
    <g id="EsriLogo" stroke="none" stroke-width="1" fill="none" fill-rule="evenodd">
        <path d="M24.8452485,19.7169621 C22.8386829,20.18991 21.0791469,20.8199587 19.4012129,21.5324378 C18.767837,19.6661704 18.1996207,17.7950773 17.8141746,16.1348865 C19.6990144,14.328022 21.9290781,14.0878931 22.7601959,13.35647 C23.8009563,13.1347415 24.8816794,12.9696267 25.9971157,12.880092 C26.9055475,13.9662079 27.7256469,15.1167546 28.4840621,16.4976962 C27.3441464,17.0572488 25.7945305,17.4739727 25.1717442,18.3635442 C24.9236058,18.7189134 24.8568644,19.1975455 24.8452485,19.7169621 Z M32.2374574,37.0360305 C32.392623,37.531276 32.6043903,38.060211 32.887102,38.6259124 C33.1546367,39.1646805 33.4665442,39.5592016 33.8006654,39.8292016 C33.9286925,39.749592 34.0555592,39.6683299 34.1812391,39.585445 C34.172675,40.1603634 34.1525994,40.7508661 34.1180416,41.3139836 C33.7136575,41.5802848 31.7706408,42.4617939 31.0074886,42.7071358 L31.0075364,42.7071358 C29.8412336,41.4274083 28.5220528,39.7309669 27.5653388,38.1911007 C28.7452267,37.6969063 30.5549028,37.2500885 32.2374574,37.0360305 Z M35.2689531,38.8047694 C35.9669419,38.2608493 36.6209405,37.6635985 37.2255107,37.0191106 C37.9902279,37.1081234 38.7512628,37.237461 39.2160464,37.3539756 C38.1705643,38.6768537 36.7293293,39.7765828 35.1956273,40.7332967 C35.2272105,40.1720854 35.2513255,39.4607387 35.2689531,38.8047694 Z M37.9318618,36.217472 C38.0275267,36.1018366 38.1217056,35.9849121 38.2143721,35.8667283 C38.594098,33.3331618 37.7384805,32.5231602 38.8086191,30.2041147 C38.8902519,30.0271166 38.9790983,29.8341046 39.0744338,29.6285705 C39.6661635,29.7960996 40.2206762,29.9804828 40.702899,30.1761525 C40.764542,31.0453334 40.7596113,34.0252011 40.5907062,35.4787661 C40.4218026,35.8363007 39.9878281,36.4502752 39.6981022,36.7400011 C39.2633723,36.564418 38.6141196,36.380607 37.9318618,36.217472 Z M41.2322417,25.4931019 C41.4240813,25.1860265 41.6199067,24.892081 41.8180773,24.6191729 C41.7840538,23.8476022 41.6987036,23.0894039 41.5653488,22.3479109 C41.750667,22.409848 41.9164254,22.4538982 42.0393388,22.4546306 C42.4375587,22.4607947 42.4363269,22.1870959 42.3080974,22.0354513 C42.2246119,21.9330453 41.8298529,21.6877722 41.3728519,21.4256075 C40.6935,18.5705607 39.2950851,15.9947369 37.3788766,13.9000754 C38.1444426,14.1863171 39.1595288,14.5968708 39.9545404,15.0290003 C40.5339938,15.7563979 42.1909834,17.3911963 43.0737149,21.9701095 C43.8701643,26.091625 42.9911221,29.2243708 42.7198886,30.13177 L42.4474233,31.1982099 C42.2538599,31.9243756 41.6102982,33.6417764 41.2737213,34.333421 C41.4018918,33.3976665 41.5153165,30.9713605 41.4820783,30.4831406 C41.7076958,30.5521812 42.190934,30.2760155 42.2711205,30.0010848 C42.3512575,29.7273844 41.4759046,29.3032744 41.4759046,29.3032744 C41.4912867,28.1963295 41.3967325,26.8173004 41.2322417,25.4931019 Z M39.5900737,28.5370343 C39.8674143,27.9631627 40.1758379,27.3493318 40.5050741,26.7450428 C40.5915657,27.5208895 40.6495636,28.2742466 40.6868719,28.9568362 C40.3453322,28.8068867 39.9764201,28.667018 39.5900737,28.5370343 Z M29.5925561,15.6880392 C29.0129898,14.6685103 28.3756353,13.7142166 27.6380783,12.6926943 C29.0690041,12.6062734 30.8354155,12.6811546 32.4356223,12.8478789 C30.944617,13.3387261 30.3241792,14.6436786 29.6101092,15.6637912 L29.6101092,15.6635378 C29.6043628,15.6717482 29.5985113,15.6799151 29.5925561,15.6880392 Z M24.8572819,21.0947718 C24.8479,21.5824204 24.793031,22.0444238 24.5935227,22.4160175 C24.3161251,22.9325944 24.444345,24.4317753 24.7821442,24.9212271 C25.8461283,26.4697243 27.6152996,25.6091745 28.9455865,26.1664351 C29.5341364,26.4122246 29.9338122,26.816275 30.2683279,27.2972055 C27.5067067,27.4785793 24.7978645,28.1349796 22.2824512,29.2909461 C20.9805309,26.5268314 19.8549133,22.908331 19.8549133,22.908331 C21.4302991,22.1619613 23.0850201,21.5427908 24.8572819,21.0947718 Z M31.9490505,35.8015143 C31.4626107,35.8546503 30.9818299,35.9193082 30.556303,35.98548 C29.4713691,36.1556171 28.0720528,36.5193159 26.7701309,37.003837 C26.0217739,35.8141095 24.0195779,32.9267055 23.007385,30.745743 C25.0306841,29.7507975 27.8470044,28.9114856 31.0939989,28.7068531 C31.3689609,29.187494 31.6778507,29.6714846 32.101757,30.1054837 C33.1641418,31.1921463 31.4851001,32.7415774 31.9490505,35.8015143 Z M19.763142,41.5295452 C19.4498307,41.8522645 18.9823191,42.3999378 18.8722185,42.5640681 C13.1652225,40.7751613 8.93644639,35.9656999 7.42863444,30.92199 C6.55082568,27.9889716 6.23397468,24.7403342 6.50890695,21.7900553 C6.58781213,21.8036649 6.77151094,21.8912505 7.04520018,21.8135294 C7.23630615,21.684076 7.91438902,21.2069525 8.3964448,20.7877732 C8.40388393,20.8537527 8.41228189,20.9225768 8.42160603,20.9940478 C8.09899503,22.2173534 7.90921266,23.4947773 7.8685259,24.8100982 C8.38847017,25.3575433 8.99500205,26.2639432 9.67160023,27.2023248 C9.23185825,27.5285118 8.39348849,28.108463 8.1967189,28.2491581 C7.61849898,28.6609398 7.62466313,29.3106673 8.0364448,29.6805302 C8.2632942,29.8839613 8.73055635,29.798892 8.90069341,29.6657414 C9.40494042,29.2638226 9.82535157,28.942041 10.4035731,28.5808075 C10.6201051,29.1434707 10.8225059,29.6581457 11.0216542,30.1411003 C10.8002572,30.4010605 10.6490434,30.7458941 10.5933651,31.224341 C10.4035006,32.8776319 11.9754225,34.1746199 13.299534,34.5543474 C13.3134047,34.5583163 13.3271704,34.5622141 13.3408326,34.5660424 C13.4169471,34.6809073 13.495201,34.7972519 13.5757707,34.9153398 C12.8878233,35.4479437 12.4180974,35.9941095 12.0963157,36.4145206 C11.9101516,36.6573987 11.6993181,37.0210975 11.8706982,37.0926051 C12.0433022,37.1640617 12.6252209,37.0926051 12.8841261,37.0444728 C13.542483,36.9187198 14.0491954,36.1900872 14.5041181,35.9225525 C15.0663721,36.6981651 15.9893235,37.705765 16.9424045,38.6589209 C16.9765634,38.7980525 17.0123912,38.9314633 17.051185,39.0568207 C17.2274878,39.6251793 17.4654336,40.1898375 17.7502273,40.7434008 C18.4005766,41.0458757 19.0722679,41.3092949 19.763142,41.5295452 Z M20.7568555,30.0058173 C19.2170083,29.5769084 18.2592696,29.337503 16.194334,28.9139251 C15.645703,28.8017323 15.3029635,28.7450199 14.9947436,28.7450199 C14.5163866,28.7450199 14.1218639,28.8818693 13.1602193,29.1629657 C12.9123569,29.2334369 12.6716793,29.2991178 12.4417267,29.3670904 C12.231699,28.8307096 12.0236673,28.2651735 11.8140257,27.6672441 C13.8408783,26.1064186 15.8825261,24.7983342 18.617052,23.4557286 C19.319793,25.5602529 20.3295125,28.3699852 21.0285643,29.8728649 C20.9391032,29.9157251 20.8484818,29.9600806 20.7568555,30.0058173 Z M23.0212297,33.6927756 C23.8119561,35.0157979 24.7431748,36.4425713 25.4669293,37.5647979 C24.334084,38.1147518 23.0161989,38.9499412 21.7677427,39.8813139 C21.8536051,38.4345841 21.8848649,37.008011 22.1762639,36.24709 C22.5710186,35.2193208 22.890141,34.4438959 23.0212297,33.6927756 Z M17.0628397,11.9956406 C16.87047,10.5078042 16.7334641,8.96461736 16.767734,7.87829913 C19.0510265,6.58500988 23.4647332,5.63199315 26.4655508,5.58514375 L26.9907683,5.57153419 C27.4308655,5.56783698 27.4653866,5.21646646 27.0511301,5.15975411 C23.3253787,4.65057483 20.098934,5.40386407 16.7837213,6.77605849 L16.7837611,6.7761063 C13.3341659,8.22966965 8.94511572,11.5757047 6.26730217,17.8905111 C5.64223285,19.649829 3.13825516,28.0395724 7.58648305,35.2408186 C11.1975858,41.0846657 15.8467731,43.8648075 21.5340352,44.658782 C27.2102201,45.4502912 30.2899524,44.7635772 33.8800958,43.1694641 C42.2755141,39.4437031 48.6857324,25.4542242 42.273538,15.3137939 C39.7424368,10.6325509 33.1107795,6.52706407 25.8528209,6.84391347 C24.1354201,6.79336526 23.1269245,7.01281865 22.1134982,7.21131267 C21.8077436,7.13240749 21.2381532,7.21500988 21.206099,7.87829913 C21.206099,8.23336845 21.3182807,8.50830072 21.5439077,8.66980829 C21.7682918,8.83131427 23.6496655,10.2220027 25.0329564,11.6915947 C24.3729069,11.7640799 23.6562033,11.882721 22.9207295,12.0345468 C22.6303543,11.418027 22.1179322,11.2151404 21.4980048,11.2151404 C20.3464861,11.2141842 18.8275888,11.916648 17.6847092,11.9610321 C17.4760855,11.9696594 17.2688651,11.9813427 17.0628397,11.9956406 Z M16.2376125,12.0664375 C15.436447,12.1473945 14.6495047,12.2597721 13.8640175,12.3765125 C12.0114121,13.9497468 10.5009527,15.9115083 9.45846072,18.1363265 C9.27855925,16.5279384 9.18600731,15.1864045 9.28045914,14.4495469 L9.23977388,14.6825605 C11.0940241,12.075021 13.6251253,9.53159156 15.9306089,8.26665769 C15.9082285,8.82962289 16.0511274,10.4768244 16.2376125,12.0664375 Z M16.9847936,17.0745672 C17.3134066,18.7341112 17.7076543,20.1098735 18.2311524,22.0181924 C16.2523906,22.8910704 12.755946,25.0486083 11.2111476,26.2112139 C10.9322978,25.5056384 10.6403262,24.5066405 10.3804902,23.4767502 C10.7304756,22.4350139 11.4594813,21.7120189 12.4757944,21.6107771 C14.206757,21.4369412 15.6923665,18.8614575 16.9129275,17.1724121 C16.9367629,17.1394336 16.9607198,17.1068204 16.9847936,17.0745672 Z M25,50 C11.1928813,50 0,38.8071187 0,25 C0,11.1928813 11.1928813,0 25,0 C38.8071187,0 50,11.1928813 50,25 C50,38.8071187 38.8071187,50 25,50 Z M22.9098982,43.3827055 C22.0419508,43.2853079 21.0235938,43.2631151 20.2678281,43.0042115 C20.486048,42.7194163 20.7067428,42.3643469 20.9804432,42.1227023 C21.6400336,42.5591422 22.3464719,43.0596904 22.9098982,43.3827055 Z M8.22014361,19.2552601 C8.22014361,19.2552601 7.11794918,20.5054003 6.55698982,21.4991007 C6.78014042,19.4636171 7.25973086,18.4132043 8.06110297,16.6699135 C8.06110297,16.6699135 8.14863604,18.1641621 8.22014361,19.2552601 Z M21.8250042,41.3669971 C22.9580193,40.4263103 24.7900783,39.3093206 26.2374791,38.7027453 C26.8046026,39.592884 28.673648,42.2386418 29.422005,43.0930274 C28.0646058,43.3297398 26.1635062,43.507225 24.6581611,43.4419326 C24.6581611,43.4419326 22.3958265,41.9439836 21.8250042,41.3669971 Z M38.8942647,13.5026959 C37.9609755,13.0169414 35.9489165,12.3277621 35.1315173,12.1440633 C34.6901372,11.6940617 34.1341181,11.3254306 33.6508305,11.0172107 C33.2698711,10.7743342 32.7952113,10.8655677 32.9924719,11.2896776 C33.0676783,11.454884 33.3586376,11.7322816 33.59535,12.0121445 C32.2046631,11.6274864 28.5060257,11.336527 26.7454743,11.4980346 C25.5964305,10.2059772 24.2846472,8.63775411 22.7090281,7.59843777 C29.7610966,7.15953259 36.0956289,10.075292 38.8942647,13.5026959 Z" id="Combined-Shape" fill="#FFFFFF"></path>
    </g>
</svg>