<?xml version="1.0" encoding="UTF-8"?>
<svg width="50px" height="50px" viewBox="0 0 50 50" version="1.1" xmlns="http://www.w3.org/2000/svg" xmlns:xlink="http://www.w3.org/1999/xlink">
    <!-- Generator: Sketch 49.2 (51160) - http://www.bohemiancoding.com/sketch -->
    <title>GenericTechLogo</title>
    <desc>Created with Sketch.</desc>
    <defs></defs>
    <g id="GenericTechLogo" stroke="none" stroke-width="1" fill="none" fill-rule="evenodd">
        <path d="M25,50 C11.1928813,50 0,38.8071187 0,25 C0,11.1928813 11.1928813,0 25,0 C38.8071187,0 50,11.1928813 50,25 C50,38.8071187 38.8071187,50 25,50 Z M16.6660281,13.6221327 C16.351777,13.3314387 15.859433,13.3516473 15.5684789,13.6672136 L5.62168057,24.4736732 C5.3483287,24.7711035 5.3483287,25.2291668 5.62168057,25.526597 L15.5684789,36.3325385 C15.7217216,36.4988714 15.9303595,36.5833333 16.1400328,36.5833333 C16.3279622,36.5833333 16.5174448,36.5154529 16.6665458,36.3776194 C16.9818323,36.0869254 17.0015054,35.5951809 16.7115867,35.2796147 L7.24833129,25.0001351 L16.7105513,14.7206556 C17.0009877,14.4050893 16.9813146,13.9133449 16.6660281,13.6221327 Z M44.4612022,24.4736732 L34.5145244,13.6672136 C34.2235738,13.3516473 33.7322712,13.3314387 33.4169885,13.6221327 C33.1017058,13.9128267 33.0820329,14.4045711 33.3719481,14.7201374 L42.8345712,25.0001351 L33.3719481,35.2796147 C33.0815152,35.5951809 33.1017058,36.0869254 33.4169885,36.3776194 C33.5660877,36.5154529 33.7550502,36.5833333 33.9434951,36.5833333 C34.1526481,36.5833333 34.3618012,36.4988714 34.5150421,36.3325385 L44.4617199,25.526597 C44.7350685,25.2291668 44.7350685,24.7711035 44.4612022,24.4736732 Z M30.7596495,10.554647 C30.3612936,10.3971804 29.9101685,10.5914237 29.7523782,10.9907878 L18.8881267,38.4365829 C18.7303364,38.8354291 18.9248583,39.2871094 19.3237315,39.4450939 C19.4178883,39.4823886 19.5141146,39.5 19.6098234,39.5 C19.9186786,39.5 20.2104613,39.3140445 20.3315201,39.008953 L31.1957716,11.5631579 C31.3525272,11.1648298 31.1580054,10.7126315 30.7596495,10.554647 Z" id="Combined-Shape" fill="#FFFFFF"></path>
    </g>
</svg>