<?xml version="1.0" encoding="UTF-8"?>
<svg width="50px" height="50px" viewBox="0 0 50 50" version="1.1" xmlns="http://www.w3.org/2000/svg" xmlns:xlink="http://www.w3.org/1999/xlink">
    <!-- Generator: Sketch 49.2 (51160) - http://www.bohemiancoding.com/sketch -->
    <title>ReactLogo</title>
    <desc>Created with Sketch.</desc>
    <defs></defs>
    <g id="ReactLogo" stroke="none" stroke-width="1" fill="none" fill-rule="evenodd">
        <path d="M25,50 C11.1928813,50 0,38.8071187 0,25 C0,11.1928813 11.1928813,0 25,0 C38.8071187,0 50,11.1928813 50,25 C50,38.8071187 38.8071187,50 25,50 Z M44.9430894,24.7642276 C44.9430894,22.1219512 41.6341463,19.6178862 36.5609756,18.0650407 C37.7317073,12.8943089 37.2113821,8.7804878 34.9186992,7.46341463 C34.3902439,7.15447154 33.7723577,7.00813008 33.097561,7.00813008 C30.8699187,7 27.9430894,8.59349593 24.9837398,11.3577236 C22.0243902,8.6097561 19.097561,7.03252033 16.8617886,7.03252033 C16.1788618,7.04065041 15.5609756,7.18699187 15.0243902,7.49593496 C12.7398374,8.81300813 12.2276423,12.9186992 13.4065041,18.0731707 C8.3495935,19.6341463 5.05691057,22.1300813 5.05691057,24.7642276 C5.05691057,27.4065041 8.36585366,29.9105691 13.4390244,31.4634146 C12.2682927,36.6341463 12.7886179,40.7479675 15.0813008,42.0650407 C15.6097561,42.3739837 16.2276423,42.5203252 16.9105691,42.5203252 C19.1463415,42.5203252 22.0731707,40.9268293 25.0325203,38.1626016 C27.9918699,40.9105691 30.9186992,42.4878049 33.1544715,42.4878049 C33.8373984,42.4878049 34.4552846,42.3414634 34.9918699,42.0325203 C37.2764228,40.7154472 37.7886179,36.6097561 36.6097561,31.4552846 C41.6504065,29.902439 44.9430894,27.398374 44.9430894,24.7642276 Z M34.3577236,19.3414634 C34.0569106,20.3902439 33.6829268,21.4715447 33.2601626,22.5528455 C32.9268293,21.902439 32.5772358,21.2520325 32.195122,20.601626 C31.8211382,19.9512195 31.4227642,19.3170732 31.0243902,18.699187 C32.1788618,18.8699187 33.2926829,19.0813008 34.3577236,19.3414634 Z M30.6341463,28 C30,29.097561 29.3495935,30.1382114 28.6747967,31.1056911 C27.4634146,31.2113821 26.2357724,31.2682927 25,31.2682927 C23.7723577,31.2682927 22.5447154,31.2113821 21.3414634,31.1138211 C20.6666667,30.1463415 20.0081301,29.1138211 19.3739837,28.0243902 C18.7560976,26.9593496 18.195122,25.8780488 17.6829268,24.7886179 C18.1869919,23.699187 18.7560976,22.6097561 19.3658537,21.5447154 C20,20.4471545 20.6504065,19.4065041 21.3252033,18.4390244 C22.5365854,18.3333333 23.7642276,18.2764228 25,18.2764228 C26.2276423,18.2764228 27.4552846,18.3333333 28.6585366,18.4308943 C29.3333333,19.398374 29.9918699,20.4308943 30.6260163,21.5203252 C31.2439024,22.5853659 31.804878,23.6666667 32.3170732,24.7560976 C31.804878,25.8455285 31.2439024,26.9349593 30.6341463,28 Z M33.2601626,26.9430894 C33.699187,28.0325203 34.0731707,29.1219512 34.3821138,30.1788618 C33.3170732,30.4390244 32.195122,30.6585366 31.0325203,30.8292683 C31.4308943,30.203252 31.8292683,29.5609756 32.203252,28.902439 C32.5772358,28.2520325 32.9268293,27.5934959 33.2601626,26.9430894 Z M25.0162602,35.6178862 C24.2601626,34.8373984 23.504065,33.9674797 22.7560976,33.0162602 C23.4878049,33.0487805 24.2357724,33.0731707 24.9918699,33.0731707 C25.7560976,33.0731707 26.5121951,33.0569106 27.2520325,33.0162602 C26.5203252,33.9674797 25.7642276,34.8373984 25.0162602,35.6178862 Z M18.9674797,30.8292683 C17.8130081,30.6585366 16.699187,30.4471545 15.6341463,30.1869919 C15.9349593,29.1382114 16.3089431,28.0569106 16.7317073,26.9756098 C17.0650407,27.6260163 17.4146341,28.2764228 17.796748,28.9268293 C18.1788618,29.5772358 18.5691057,30.2113821 18.9674797,30.8292683 Z M24.9756098,13.9105691 C25.7317073,14.6910569 26.4878049,15.5609756 27.2357724,16.5121951 C26.504065,16.4796748 25.7560976,16.4552846 25,16.4552846 C24.2357724,16.4552846 23.4796748,16.4715447 22.7398374,16.5121951 C23.4715447,15.5609756 24.2276423,14.6910569 24.9756098,13.9105691 Z M18.9593496,18.699187 C18.5609756,19.3252033 18.1626016,19.9674797 17.7886179,20.6260163 C17.4146341,21.2764228 17.0650407,21.9268293 16.7317073,22.5772358 C16.2926829,21.4878049 15.9186992,20.398374 15.6097561,19.3414634 C16.6747967,19.0894309 17.796748,18.8699187 18.9593496,18.699187 Z M11.601626,28.8780488 C8.72357724,27.6504065 6.86178862,26.0406504 6.86178862,24.7642276 C6.86178862,23.4878049 8.72357724,21.8699187 11.601626,20.6504065 C12.300813,20.3495935 13.0650407,20.0813008 13.8536585,19.8292683 C14.3170732,21.4227642 14.9268293,23.0813008 15.6829268,24.7804878 C14.9349593,26.4715447 14.3333333,28.1219512 13.8780488,29.7073171 C13.0731707,29.4552846 12.3089431,29.1788618 11.601626,28.8780488 Z M15.9756098,40.495935 C14.8699187,39.8617886 14.3902439,37.4471545 14.7642276,34.3414634 C14.8536585,33.5772358 15,32.7723577 15.1788618,31.9512195 C16.7723577,32.3414634 18.5121951,32.6422764 20.3414634,32.8373984 C21.4390244,34.3414634 22.5772358,35.7073171 23.7235772,36.902439 C21.0731707,39.3658537 18.5853659,40.7154472 16.8943089,40.7154472 C16.5284553,40.7073171 16.2195122,40.6341463 15.9756098,40.495935 Z M35.2601626,34.300813 C35.6422764,37.4065041 35.1707317,39.8211382 34.0731707,40.4634146 C33.8292683,40.6097561 33.5121951,40.6747967 33.1382114,40.6747967 C31.4552846,40.6747967 28.9593496,39.3333333 26.3089431,36.8861789 C27.4471545,35.6910569 28.5853659,34.3333333 29.6666667,32.8292683 C31.504065,32.6341463 33.2439024,32.3333333 34.8373984,31.9349593 C35.0243902,32.7560976 35.1707317,33.5447154 35.2601626,34.300813 Z M38.3902439,28.8780488 C37.6910569,29.1788618 36.9268293,29.4471545 36.1382114,29.699187 C35.6747967,28.1056911 35.0650407,26.4471545 34.3089431,24.7479675 C35.0569106,23.0569106 35.6585366,21.4065041 36.1138211,19.8211382 C36.9186992,20.0731707 37.6829268,20.3495935 38.398374,20.6504065 C41.2764228,21.8780488 43.1382114,23.4878049 43.1382114,24.7642276 C43.1300813,26.0406504 41.2682927,27.6585366 38.3902439,28.8780488 Z M35.2411893,15.124045 C35.1521075,15.8799652 35.0023419,16.6759521 34.8262996,17.4849314 C33.2145843,17.0895123 31.4733714,16.7883083 29.6237835,16.5935145 C28.533269,15.1002272 27.4047881,13.7540005 26.2594633,12.5670296 C26.8801689,11.996001 27.5016718,11.4723719 28.1199071,11.003183 C30.6221009,9.12454074 32.9470849,8.31706255 34.0524994,8.95527394 C35.1538489,9.60052617 35.6240851,12.0218255 35.2411893,15.124045 Z M21.8370227,11.1669608 C22.4471279,11.622068 23.06159,12.1497622 23.6741656,12.7067091 C22.5258649,13.9047859 21.3944081,15.2621185 20.3009178,16.7665116 C18.4624358,16.9642813 16.7323289,17.2684611 15.1317195,17.666856 C14.947547,16.8437949 14.8048223,16.043743 14.7076105,15.2737411 C14.3317555,12.1674566 14.7949509,9.75022231 15.9003654,9.11201092 C17.009845,8.4808404 19.3418698,9.28425355 21.8370227,11.1669608 Z M24.9918699,28.4796748 C27.0438547,28.4796748 28.7073171,26.8162124 28.7073171,24.7642276 C28.7073171,22.7122428 27.0438547,21.0487805 24.9918699,21.0487805 C22.9398851,21.0487805 21.2764228,22.7122428 21.2764228,24.7642276 C21.2764228,26.8162124 22.9398851,28.4796748 24.9918699,28.4796748 Z" id="Combined-Shape" fill="#FFFFFF"></path>
    </g>
</svg>