<?xml version="1.0" encoding="UTF-8"?>
<svg width="50px" height="50px" viewBox="0 0 50 50" version="1.1" xmlns="http://www.w3.org/2000/svg" xmlns:xlink="http://www.w3.org/1999/xlink">
    <!-- Generator: Sketch 49.2 (51160) - http://www.bohemiancoding.com/sketch -->
    <title>SketchLogo</title>
    <desc>Created with Sketch.</desc>
    <defs></defs>
    <g id="SketchLogo" stroke="none" stroke-width="1" fill="none" fill-rule="evenodd">
        <path d="M25,50 C11.1928813,50 0,38.8071187 0,25 C0,11.1928813 11.1928813,0 25,0 C38.8071187,0 50,11.1928813 50,25 C50,38.8071187 38.8071187,50 25,50 Z M44.4,20.696 C44.4048273,20.6641821 44.4048273,20.6318179 44.4,20.6 L37.04,10.12 C36.8906208,9.91652382 36.6524085,9.79741766 36.4,9.8 L25.2,9 L14,9.8 C13.8054208,9.81352537 13.6228704,9.8990959 13.488,10.04 L6.16,20.536 L6.16,20.664 C6.0303988,20.9445708 6.0740004,21.2746972 6.272,21.512 L24.672,43.912 C24.8239839,44.0954163 25.0497971,44.2015649 25.288,44.2015649 C25.5262029,44.2015649 25.7520161,44.0954163 25.904,43.912 L44.304,21.512 C44.4839011,21.2784631 44.5207894,20.9649122 44.4,20.696 Z M32.896,23.4 L25.2,41.368 L17.504,23.4 L32.896,23.4 Z M33.056,20.2 L17.344,20.2 L25.2,11.032 L33.056,20.2 Z M14.672,20.2 L10.272,20.2 L13.872,15 L14.672,20.2 Z M35.728,20.2 L36.528,15 L40.128,20.2 L35.728,20.2 Z" id="Combined-Shape" fill="#FFFFFF"></path>
    </g>
</svg>