<?xml version="1.0" encoding="UTF-8"?>
<svg width="600px" height="600px" viewBox="0 0 600 600" version="1.1" xmlns="http://www.w3.org/2000/svg" xmlns:xlink="http://www.w3.org/1999/xlink">
    <!-- Generator: Sketch 49.2 (51160) - http://www.bohemiancoding.com/sketch -->
    <title>UXRole</title>
    <desc>Created with Sketch.</desc>
    <defs></defs>
    <g id="UXRole" stroke="none" stroke-width="1" fill="none" fill-rule="evenodd">
        <path d="M300,600 C465.685425,600 600,465.685425 600,300 C600,134.314575 465.685425,0 300,0 C134.314575,0 0,134.314575 0,300 C0,465.685425 134.314575,600 300,600 Z M440.9605,103.862955 C438.976072,103.923684 437.100393,104.785209 435.75959,106.251803 L126.80866,445.180437 C124.836878,447.335637 124.323467,450.454546 125.500111,453.129714 C126.676755,455.804882 129.320939,457.530407 132.239438,457.527622 L441.190374,457.527622 C445.252798,457.527215 448.545942,454.228681 448.546349,450.159608 L448.546349,111.230969 C448.547116,109.236359 447.740574,107.326641 446.310982,105.938101 C444.881391,104.549562 442.950885,103.800829 440.9605,103.862955 Z M433.815869,129.401823 L433.815869,441.966788 L397.064728,441.966788 L397.007263,427.259539 C397.030772,425.265361 396.246293,423.346798 394.832996,421.942038 C393.419699,420.537278 391.498292,419.766298 389.507612,419.805187 L389.507612,419.747628 C387.556631,419.78562 385.700646,420.598438 384.34804,422.007234 C382.995435,423.416029 382.257035,425.305372 382.295314,427.259539 L382.352779,441.966788 L352.92888,441.966788 L352.900148,439.002312 C352.923656,437.008133 352.139177,435.08957 350.72588,433.68481 C349.312584,432.28005 347.391176,431.509071 345.400496,431.547959 L345.400496,431.490386 C343.449513,431.528377 341.593525,432.341198 340.240919,433.749996 C338.888314,435.158795 338.149915,437.048142 338.188199,439.002312 L338.216931,441.966788 L308.793032,441.966788 L308.735568,427.374672 C308.75908,425.380491 307.974602,423.461924 306.561305,422.057161 C305.148008,420.652397 303.226599,419.881416 301.235916,419.920305 L301.235916,419.862746 C299.284932,419.900738 297.428945,420.713558 296.076339,422.122357 C294.723733,423.531155 293.985335,425.420502 294.023618,427.374672 L294.081083,441.966788 L264.657184,441.966788 L264.628452,438.714502 C264.644143,436.725291 263.856217,434.81423 262.443792,433.415757 C261.031367,432.017283 259.114447,431.250216 257.1288,431.288929 L257.1288,431.231356 C253.077464,431.310528 249.852825,434.656264 249.916503,438.714502 L249.945235,441.966788 L220.521338,441.966788 L220.46387,427.374672 C220.487383,425.380492 219.702906,423.461925 218.289609,422.057162 C216.876313,420.652399 214.954905,419.881417 212.964223,419.920305 L212.964223,419.862746 C211.013239,419.900737 209.15725,420.713556 207.804643,422.122355 C206.452037,423.531154 205.713637,425.420502 205.751921,427.374672 L205.809389,441.966788 L148.915522,441.966788 L433.815869,129.401823 Z M381.364845,251.107656 C379.366036,251.168106 377.477921,252.040967 376.135203,253.525278 L255.997204,386.149528 C254.041245,388.310243 253.541733,391.423189 254.723215,394.088996 C255.904698,396.754803 258.544798,398.471718 261.456705,398.467934 L381.594719,398.467934 C385.657143,398.467528 388.950288,395.168993 388.950693,391.09992 L388.950693,258.47567 C388.951461,256.48106 388.144919,254.571342 386.715327,253.182802 C385.285736,251.794263 383.355229,251.04553 381.364845,251.107656 Z M374.332609,276.646524 L374.332609,382.849534 L278.13026,382.849534 L374.332609,276.646524 Z" id="Combined-Shape-Copy" fill="#FFFFFF"></path>
    </g>
</svg>