<?xml version="1.0" encoding="UTF-8" standalone="no"?>
<svg width="110px" height="142px" viewBox="0 0 110 142" version="1.1" xmlns="http://www.w3.org/2000/svg" xmlns:xlink="http://www.w3.org/1999/xlink">
    <!-- Generator: Sketch 3.8.3 (29802) - http://www.bohemiancoding.com/sketch -->
    <title>Page 1</title>
    <desc>Created with Sketch.</desc>
    <defs></defs>
    <g id="Page-1" stroke="none" stroke-width="1" fill="none" fill-rule="evenodd">
        <g>
            <path d="M60.2109,113.303 C60.2979,113.349 60.3759,113.4 60.4539,113.448 C60.1729,107.999 60.0059,109.343 60.0059,103.009 C60.0059,94.57 60.5649,86.692 61.5289,80.007 L49.2869,80.007 C50.2539,86.692 50.8119,94.57 50.8119,103.009 C50.8119,111.124 50.6579,112.387 50.3109,118.909 C51.5369,119.555 53.2759,119.955 55.2059,119.955 C57.4669,119.955 59.4689,119.401 60.6849,118.548 C60.6019,117.267 60.5259,114.819 60.4539,113.448 C60.3759,113.4 60.2979,113.349 60.2109,113.303" id="Fill-1" fill="#F1E5E1"></path>
            <path d="M60.5096,113.277 C60.1676,113.099 60.6456,113.454 60.2756,113.181 C60.3376,113.173 60.4166,113.187 60.5096,113.277" id="Fill-3" fill="#D6CBC0"></path>
            <path d="M60.3757,114.4041 C60.6767,115.5921 60.4987,117.1561 60.7157,118.4891 C60.7117,118.6401 60.6507,118.4271 60.4387,118.6271 C59.9897,119.0281 59.2037,119.3951 58.3787,119.5841 C57.5457,119.7801 56.6537,119.8361 55.8857,119.7971 L55.9767,119.7551 C55.6857,119.7421 55.3337,119.8801 55.0217,119.8561 C55.0197,119.8311 55.1217,119.8221 55.0497,119.7861 C54.9707,119.8641 54.4907,119.8091 54.3567,119.8531 C54.2367,119.8141 54.2527,119.7571 54.0987,119.7101 L53.9147,119.7811 C53.3977,119.9411 52.7277,119.6171 52.0557,119.5481 C52.0917,119.5371 52.1607,119.5381 52.1137,119.5061 C51.5697,119.4281 50.9927,119.2681 50.3967,118.9851 L50.2847,118.9321 C50.2727,118.8991 50.2837,118.8531 50.2817,118.8131 L50.2897,118.5661 L50.3067,118.0841 C50.3157,117.7691 50.3247,117.4561 50.3327,117.1511 C50.3607,117.2011 50.4147,117.2491 50.4527,117.1801 C50.3647,117.1151 50.3617,116.7381 50.3617,116.4121 C50.4647,116.2711 50.3077,115.8491 50.3807,115.4701 L50.3997,115.5041 C50.3167,115.2161 50.4797,115.0881 50.3737,114.8531 L50.4577,114.6781 C50.3317,114.5471 50.5477,114.2731 50.4927,114.0361 L50.4647,114.0431 C50.4447,113.8211 50.5167,113.7101 50.5047,113.5051 L50.5207,113.4861 C50.5107,113.0071 50.5957,112.7331 50.4917,112.7401 C50.5827,112.5761 50.5087,113.2041 50.6417,112.9471 C50.6107,111.3701 50.6787,109.7511 50.7017,108.1671 C50.7457,107.9881 50.7597,107.8731 50.7997,107.8341 C50.7807,107.6751 50.7877,107.2371 50.7367,107.0931 C50.7377,107.1461 50.7907,106.9911 50.7967,106.9081 C50.8387,106.6201 50.6857,106.5921 50.7347,106.2761 C50.7607,106.4021 50.7937,106.4451 50.8327,106.4031 C50.7537,106.1331 50.7707,105.7721 50.7447,105.4531 C50.7627,105.5021 50.7727,105.5801 50.8047,105.5681 C50.7147,105.2181 50.8267,104.9311 50.7707,104.6251 L50.8297,104.7401 C50.9047,104.2481 50.7057,104.5941 50.7487,104.1681 C50.7677,104.2711 50.7917,104.2351 50.8157,104.2531 C50.7067,103.8561 50.7447,103.2141 50.7067,102.8171 C50.7147,102.8411 50.7317,102.8351 50.7317,102.8351 C50.7157,102.4031 50.7477,101.9521 50.6987,101.4781 C50.7237,101.3051 50.8457,101.5331 50.8177,101.0761 C50.6977,101.0941 50.7587,100.3011 50.6267,100.5731 C50.6427,100.1821 50.6777,99.5651 50.6297,99.3061 C50.6797,99.4801 50.7727,99.1131 50.7897,99.4371 L50.8577,99.1901 C50.9077,99.2251 50.8457,99.4431 50.9067,99.3641 C50.8987,99.2011 50.8407,98.7281 50.8577,98.5821 C50.7787,98.2831 50.6307,98.0101 50.6027,97.5241 C50.6557,97.7511 50.7307,97.3891 50.7557,97.5451 L50.5057,96.8721 C50.4957,96.7101 50.5997,96.8341 50.5597,96.6001 C50.5287,96.6141 50.5057,96.5121 50.4767,96.4421 C50.4887,96.3811 50.4217,95.7701 50.5377,95.6951 C50.5817,95.6221 50.5727,95.9581 50.6077,95.7771 C50.5947,95.4771 50.5557,95.4661 50.5407,95.1671 L50.5557,95.1601 C50.5647,94.9621 50.4787,94.5801 50.4227,94.7981 C50.4257,94.9361 50.4917,94.7431 50.4667,94.9481 C50.3917,94.8121 50.3567,94.4651 50.3417,94.1661 C50.3657,94.2671 50.3967,94.2531 50.4317,94.2931 C50.3217,93.8951 50.2687,93.4721 50.2057,93.0261 C50.1487,93.0221 50.3167,93.1871 50.2907,93.2551 C50.3387,92.6751 50.1157,92.0751 50.1977,91.5901 C50.2127,91.6681 50.1207,91.6371 50.1357,91.6311 C50.1257,91.3541 50.2077,91.3611 50.1657,91.1831 C50.2127,91.1621 50.1377,90.9571 50.1097,90.7731 C50.0677,90.6801 50.1297,90.7231 50.1457,90.8841 C50.0847,90.6281 49.9427,89.6001 49.9617,88.9991 C49.9317,89.0131 49.8167,88.6411 49.8087,88.5041 L49.8867,88.5521 C49.9217,88.4231 49.8437,88.0931 49.9047,88.0651 C49.7917,87.7791 50.0727,89.1861 49.9707,88.7961 C50.0247,88.6881 49.8087,88.2541 49.9167,88.3311 C49.8927,88.0551 49.7847,87.7961 49.8307,87.5271 C49.8257,87.6051 49.9527,87.7421 49.9277,87.5201 C49.8787,87.1291 49.8817,87.4111 49.8287,87.0961 L49.7807,86.9001 C49.7077,86.8941 49.7587,86.5501 49.6917,86.7021 C49.7477,86.6491 49.5997,86.1381 49.7227,86.1671 L49.8217,86.2121 C49.7977,86.0431 49.6957,85.9451 49.6407,85.8161 C49.6477,85.7931 49.6617,85.7471 49.6777,85.7541 C49.5317,85.7411 49.6507,85.3491 49.5177,85.1601 C49.5287,84.8011 49.4247,84.2611 49.4957,84.0841 C49.4227,83.8161 49.3397,83.5751 49.3347,83.2611 C49.3557,83.3211 49.3697,83.4051 49.4027,83.4191 C49.4217,83.2201 49.3777,83.1761 49.3337,83.0011 C49.3597,83.0391 49.3727,82.6021 49.3947,82.3791 C49.3167,82.1151 49.2517,82.2171 49.2007,82.1961 C49.3097,81.9311 49.0137,81.4461 49.0977,81.1221 C49.1307,81.2121 49.2207,81.5051 49.2267,81.2761 C49.2797,81.1441 49.2357,81.0231 49.1807,80.8851 C49.1247,80.7381 49.0417,80.4671 49.0407,80.2101 L48.9337,80.3011 C48.9597,80.1491 48.8747,79.8241 48.8407,79.6191 C48.9537,79.6161 49.0357,79.6251 49.0557,79.6691 C49.2257,79.6271 49.7767,79.7081 49.6617,79.5931 L50.0737,79.6191 L50.3577,79.6281 C50.5457,79.6281 50.7377,79.6271 50.9227,79.6261 C51.2927,79.6251 51.6297,79.6381 51.8327,79.7411 C51.9277,79.7221 52.1637,79.7411 52.1157,79.6821 C51.9577,79.6181 51.8957,79.7281 51.8377,79.6841 C51.9217,79.6801 51.9407,79.6491 51.9497,79.6331 C52.1547,79.6601 52.3167,79.6681 52.1227,79.7631 C52.5787,79.8351 52.5927,79.5681 53.1737,79.6131 C53.1477,79.6601 53.1917,79.6791 53.3617,79.6711 L53.6847,79.5891 C54.0597,79.6081 53.8977,79.6981 53.9067,79.7791 C54.1077,79.7641 54.3537,79.7691 54.4447,79.7081 L54.6887,79.8101 C54.5107,79.7361 54.8537,79.7611 54.9477,79.7411 L54.8537,79.7611 C54.8907,79.7951 55.1227,79.7741 55.2397,79.7641 C55.2127,79.7141 54.9757,79.6941 54.8457,79.6791 C54.9487,79.6441 55.1077,79.6521 55.2437,79.6101 C55.1987,79.6891 55.5717,79.6671 55.7307,79.6751 C55.9137,79.6921 55.9367,79.6041 55.9907,79.6071 C55.9957,79.6481 56.2897,79.6131 56.1467,79.6711 C56.0847,79.6841 56.0037,79.6311 55.9007,79.6671 C56.0217,79.6981 56.0077,79.7691 56.2577,79.7171 C56.4467,79.6781 56.2097,79.5611 56.5677,79.6111 C56.4727,79.6311 56.4557,79.6621 56.3837,79.6901 L56.7187,79.7321 L56.7327,79.6601 C56.7777,79.6781 56.7467,79.6841 56.7677,79.6941 C56.8667,79.6181 57.2787,79.6701 57.3547,79.5851 C57.5237,79.5781 57.7107,79.6351 57.8727,79.6431 L57.8417,79.6491 C58.0387,79.6921 58.3007,79.6641 58.4667,79.6151 L58.4577,79.6311 C58.5657,79.6371 58.8197,79.6251 58.9547,79.5831 C59.2277,79.6371 59.0467,79.8551 59.3477,79.7641 C59.6237,79.7621 59.7807,79.6321 59.6697,79.5861 C60.1917,79.6351 60.6207,79.5171 61.4417,79.6291 C61.5727,79.6001 61.5137,79.5821 61.7677,79.5651 L62.0317,79.5691 C61.9687,80.0721 61.9027,80.5961 61.8407,81.0911 C61.7977,81.4231 61.7497,81.7361 61.6497,81.9931 C61.6467,81.7801 61.5797,81.9701 61.5387,81.9691 C61.5807,82.1501 61.4457,82.1681 61.5477,82.2441 C61.6147,82.2351 61.6437,82.2561 61.6957,82.0561 C61.6727,82.4901 61.5957,83.1441 61.5077,83.3771 C61.5517,83.2601 61.5607,83.3551 61.5687,83.4521 C61.4697,83.4081 61.4157,83.7241 61.4247,83.9691 L61.4837,84.0101 L61.4017,84.1591 C61.4117,84.2541 61.5227,84.2761 61.4367,84.5081 C61.4107,84.5171 61.3847,84.5281 61.3617,84.5701 C61.3867,84.8251 61.4337,85.1841 61.3547,85.4491 L61.2407,85.6611 C61.2397,85.7771 61.2757,85.9771 61.3217,85.7761 C61.2207,86.2321 61.1837,86.5291 61.0907,86.6681 C61.2107,87.4811 61.1187,88.6341 61.0357,89.5591 L60.9897,89.5281 C60.9277,89.7731 61.0637,89.6631 61.0177,89.8341 C60.9787,89.7501 60.9067,90.0161 60.8657,89.8171 C60.7897,90.1691 60.9147,90.2811 60.9187,90.5141 C60.9787,90.5541 60.8927,90.3251 60.9687,90.3761 C60.9877,90.4171 60.8847,90.8641 60.9747,90.9261 C60.9327,91.0131 60.8677,90.9391 60.8327,90.8881 L60.8647,91.1091 C60.7367,91.3681 60.7077,90.4891 60.5547,90.7591 L60.5557,90.9611 C60.4437,91.1461 60.4807,90.4221 60.4127,90.9241 C60.4447,91.1461 60.5697,91.3421 60.6237,91.1501 C60.6207,91.6071 60.8347,91.3751 60.7957,91.8641 C60.7317,91.9941 60.8077,91.4721 60.7237,91.5611 C60.6337,91.7861 60.7367,92.0261 60.6977,92.2291 C60.7477,92.0031 60.8307,92.2011 60.8387,92.3491 C60.7807,92.5961 60.7577,92.1831 60.7297,92.5341 C60.7807,92.5961 60.8037,92.9221 60.8567,92.6441 C60.9727,92.7781 60.8027,93.0091 60.8877,93.2051 C60.7947,93.3161 60.7067,92.8321 60.6427,93.2171 C60.7297,93.1601 60.7297,93.7011 60.8647,93.5021 C60.8327,93.6531 60.7667,93.6651 60.7207,93.5521 C60.6567,93.7661 60.8467,94.0861 60.6777,94.1491 L60.7607,94.2271 C60.7297,94.2941 60.7037,94.3901 60.6527,94.4991 C60.6427,94.6901 60.7397,95.1191 60.6117,95.0971 C60.6217,95.1581 60.5987,95.5941 60.6947,95.4301 C60.7597,95.1611 60.6427,95.1151 60.7707,94.9701 C60.6627,95.1571 60.7647,95.3611 60.7927,95.5191 L60.7417,95.5421 C60.7577,95.6371 60.7387,95.8511 60.7907,95.9111 C60.7647,95.8391 60.7297,95.8751 60.7147,95.9491 L60.7867,96.0491 C60.8107,96.4301 60.6497,96.1341 60.6587,96.5031 L60.6097,96.2211 C60.6197,96.2831 60.5447,96.4061 60.5617,96.5841 C60.6287,96.6551 60.7067,96.7861 60.7587,96.8471 C60.7827,97.0561 60.6777,96.9381 60.7427,97.1451 L60.6677,96.8741 C60.6457,96.8331 60.5477,97.0511 60.5417,97.3291 C60.5597,97.5081 60.6517,97.7861 60.6977,97.5071 C60.6947,97.6471 60.6477,97.8411 60.5997,97.7281 C60.6147,98.0451 60.6757,97.6891 60.7107,97.9631 C60.6617,98.0731 60.5857,98.4181 60.5147,98.6271 L60.4047,98.3391 L60.3997,98.5281 C60.3117,98.2811 60.3267,98.6511 60.2317,98.5101 C60.2137,98.6391 60.2437,98.7971 60.2667,98.9231 C60.4307,98.5481 60.4717,99.3511 60.6177,99.2441 C60.6467,99.7621 60.2607,99.5611 60.4777,100.1061 C60.5157,100.0181 60.6217,100.2741 60.5837,99.9471 C60.5647,100.2691 60.7247,100.1681 60.6607,100.5471 C60.6057,100.2651 60.5117,100.8471 60.4317,100.4401 C60.4797,100.4681 60.4707,100.2131 60.4577,100.1501 C60.4017,100.2831 60.3147,100.1211 60.3107,100.4511 C60.3217,100.6521 60.3207,100.9291 60.3957,100.8901 C60.4777,100.8821 60.3907,100.5821 60.4727,100.7121 C60.4957,101.1131 60.3707,101.1791 60.5137,101.3471 C60.5057,101.0931 60.5907,101.0311 60.6467,101.0361 L60.6767,101.3301 L60.6237,101.2731 C60.5797,101.7441 60.7207,101.4131 60.7037,101.8701 L60.5957,102.0841 C60.5037,101.9741 60.6397,101.4191 60.4887,101.4991 C60.4807,101.7961 60.5567,101.8951 60.5167,102.1761 C60.5077,102.1081 60.4967,102.0341 60.4877,101.9661 C60.4817,102.0731 60.2817,102.1781 60.3967,102.6031 C60.4417,102.8221 60.4507,102.6611 60.5067,102.6661 C60.5217,103.1441 60.5817,103.2871 60.5897,103.5941 C60.4797,103.5311 60.5807,104.1381 60.4667,103.7991 C60.5317,103.6421 60.5227,102.9511 60.4197,102.7821 C60.2887,102.9561 60.4397,102.4071 60.3077,102.3031 C60.3037,102.6871 60.1747,102.6681 60.0907,102.7301 C60.0837,102.8361 60.1197,102.9401 60.1327,103.0031 C60.2117,103.0481 60.2107,102.9091 60.2927,102.9011 C60.2707,103.3291 60.3167,103.7411 60.3937,103.9771 C60.3547,104.1201 60.2757,104.0751 60.2677,103.9061 C60.2927,104.4151 60.2837,104.9591 60.2667,105.4421 C60.3927,105.1281 60.3037,105.9801 60.4087,105.7661 C60.4347,105.5071 60.5237,105.2841 60.5837,105.4251 C60.5777,105.5871 60.5267,105.4211 60.5007,105.4891 C60.5737,105.6931 60.3897,105.8101 60.5057,106.0101 C60.4557,105.5471 60.3467,105.9221 60.2437,105.8391 C60.3067,106.1731 60.1707,105.8261 60.1777,106.1571 C60.2397,106.4901 60.2947,106.8981 60.3297,107.2671 C60.2477,107.7361 60.3837,108.4411 60.4197,108.8551 C60.3837,109.0751 60.2587,108.9371 60.2577,109.1751 C60.2807,109.4511 60.3647,108.9601 60.3437,109.3741 L60.3187,109.3361 C60.3547,109.4581 60.2997,110.0941 60.4727,110.2041 L60.3397,110.0861 C60.3337,110.1641 60.3677,110.2321 60.3857,110.2951 C60.3457,110.3011 60.3157,110.3931 60.2797,110.2701 C60.2137,110.5301 60.3327,110.8011 60.3547,111.0761 L60.4157,110.8941 C60.5057,111.3631 60.4547,111.6841 60.5067,112.1381 L60.4337,112.1291 L60.4937,112.3981 C60.4197,112.3361 60.3897,112.5881 60.4557,112.7281 L60.2387,112.0321 C60.2697,111.8341 60.3387,112.2411 60.4017,112.1141 C60.4567,112.0061 60.4127,111.5841 60.3377,111.5201 C60.3407,111.6831 60.3567,111.6901 60.3907,111.8131 C60.2937,111.8731 60.2827,111.6271 60.2077,111.5101 C60.2177,111.5941 60.1957,111.7171 60.2277,111.7331 C60.1687,111.5701 60.1497,111.4031 60.1287,111.1261 C60.1797,111.3111 60.1837,111.0201 60.2167,111.0891 C60.1287,111.0731 60.0827,110.8111 60.0827,110.4681 C60.1657,110.2161 59.9687,109.8311 59.9647,109.4331 C60.0657,109.5861 60.1537,109.7861 60.2087,110.0241 C60.2337,109.7721 60.1837,109.7481 60.2097,109.4951 C60.1337,109.3801 60.0257,109.3011 59.9607,108.9791 L60.0247,108.9571 C59.9707,108.6641 59.8717,108.6711 59.8667,108.2921 C59.8557,107.6401 59.8437,106.9801 59.8357,106.4871 L59.9007,106.4671 C59.7537,106.1961 59.8317,105.5561 59.7667,105.1881 C59.8237,104.5611 59.6957,103.8271 59.8087,103.5061 C59.7577,102.4011 59.7117,101.4331 59.7527,100.2871 L59.8457,100.4811 C59.7777,100.2751 59.9027,100.3491 59.8907,100.1471 C59.8127,100.3771 59.7937,99.8671 59.7397,99.7241 C59.8257,99.2151 59.7557,98.5581 59.7017,98.1041 L59.7677,98.0881 C59.6587,97.6281 59.7797,97.0851 59.8207,96.5171 C59.8497,96.4521 59.9157,96.3511 59.9147,96.1821 C59.8197,95.8691 59.8337,95.7071 59.7847,95.2521 C59.7997,94.9211 59.8507,94.3851 59.9067,94.0511 C59.8187,92.8001 59.9867,91.5341 59.9907,90.2371 L60.0747,90.1491 C59.9957,88.8831 60.2797,87.3561 60.2977,86.2811 L60.4187,86.3961 C60.4927,86.0661 60.4597,85.6311 60.3587,85.7071 C60.4307,85.3751 60.3797,84.8631 60.5117,84.6621 C60.5727,84.3211 60.4967,84.2361 60.5097,83.9491 C60.6387,83.2691 60.6577,83.0131 60.7117,82.3641 L60.6827,82.5231 C60.7037,82.5981 60.7577,82.6111 60.7867,82.4511 C60.7817,82.2061 60.9357,81.5701 60.7487,81.7901 C60.8207,81.5171 60.8547,81.2021 60.8897,80.8801 C60.9147,80.6641 60.9007,80.7131 60.9047,80.6511 C60.9067,80.6131 60.9097,80.5781 60.9227,80.5351 C60.8927,80.5291 60.8687,80.5161 60.8417,80.4921 C60.8327,80.5351 60.7827,80.5431 60.7607,80.5721 C60.5137,80.5611 60.2567,80.5501 60.0127,80.5391 C59.7167,80.5271 59.4367,80.5231 59.1937,80.5601 C59.0967,80.5381 59.3477,80.4871 59.1007,80.4821 C58.9537,80.4981 59.0967,80.5381 58.9167,80.5621 C57.9327,80.6431 56.9247,80.4791 56.0297,80.5001 C54.4387,80.5831 52.7797,80.5411 51.2557,80.5551 L51.2727,80.5241 C51.0177,80.5841 50.7187,80.5531 50.4317,80.5301 C50.3127,80.5181 50.0947,80.5081 50.0737,80.5131 C50.0377,80.5171 50.0077,80.5361 50.0167,80.5821 C49.9817,80.5561 49.9317,80.5641 49.8867,80.5301 C49.8867,80.5301 49.8807,80.5261 49.8777,80.5211 L49.8637,80.5071 L49.8627,80.5091 C49.9167,80.6031 49.9017,80.6411 49.8967,80.7341 C49.9207,81.0161 49.9527,81.3601 50.0417,81.6381 C50.0377,81.5841 50.0277,81.5541 50.0057,81.4931 C50.0137,82.0931 50.1757,82.6021 50.1847,83.2341 C50.1637,83.1721 50.1407,83.0591 50.1067,83.0441 C50.0757,83.2911 50.3077,83.5991 50.1717,83.7491 C50.1897,83.8871 50.2597,83.8391 50.2447,83.7541 C50.3407,85.1281 50.5827,86.5791 50.7397,88.0031 C50.7317,89.0331 50.4897,88.0861 50.6677,88.8831 C50.6437,88.9521 50.7297,88.9261 50.6987,88.9401 C50.7667,89.2491 50.5687,89.4391 50.6637,89.6501 C50.7507,89.5531 50.7257,89.7901 50.7837,89.7921 C50.7667,90.4221 50.6937,90.5531 50.7967,91.0411 L50.7457,91.0081 C50.9197,91.5771 50.8917,92.2521 51.0757,92.7321 C51.2827,95.9251 51.4607,98.9901 51.4927,102.1121 C51.4687,105.1931 51.5377,108.2071 51.3407,111.3431 C51.1827,112.0731 51.1847,112.1281 51.2007,112.9351 C51.1807,112.9021 51.1787,112.8511 51.1567,112.9041 C51.2607,112.9491 51.1397,113.4711 51.2367,113.5531 C51.1777,114.7081 51.1227,115.7701 51.0617,116.9571 C51.0607,116.7691 50.9797,116.6701 50.9747,116.8931 L51.0287,117.1301 L50.9977,117.1661 C51.0047,117.3191 51.0477,117.4881 51.0907,117.3331 C51.0777,117.7061 51.0637,118.0771 51.0507,118.4481 C51.0487,118.5091 51.0537,118.4581 51.0507,118.4701 C51.0627,118.4741 51.0097,118.4551 51.1407,118.5111 C51.7587,118.7771 52.4237,118.9741 53.1047,119.1101 C54.4657,119.3811 55.9007,119.4281 57.2677,119.1881 C57.9277,119.1311 58.8297,118.8441 59.4467,118.5351 C59.5617,118.4921 59.6767,118.4501 59.7857,118.4001 L59.9497,118.3261 L60.0287,118.2861 L60.0497,118.2811 C60.1207,118.2671 60.1447,118.2491 60.1447,118.1391 L60.1447,116.5971 C60.1327,115.5731 60.0947,114.5491 60.0067,113.4711 L60.2197,113.8291 C60.1487,113.7911 60.0737,113.7501 59.9977,113.7091 C59.9977,113.7091 60.0887,113.6801 60.2927,113.7101 L60.1457,113.4641 C60.2297,113.6501 60.3237,113.9501 60.3757,114.4041" id="Fill-5" fill="#D6CBC0"></path>
            <path d="M60.2461,113.051 C60.2951,112.969 60.3101,112.708 60.3921,112.911 C60.3431,112.939 60.2951,113.076 60.2461,113.051" id="Fill-7" fill="#D6CBC0"></path>
            <path d="M60.389,106.1086 C60.373,106.0996 60.409,106.0096 60.417,105.9876 C60.423,106.0726 60.469,106.1516 60.443,106.2196 C60.437,106.1336 60.412,106.1476 60.389,106.1086" id="Fill-9" fill="#D6CBC0"></path>
            <path d="M60.402,104.3396 C60.45,104.3656 60.489,104.7446 60.496,104.9676 L60.402,104.3396 Z" id="Fill-11" fill="#D6CBC0"></path>
            <path d="M60.5947,102.6895 C60.6357,102.5475 60.6567,102.5865 60.6547,102.7785 C60.6297,102.7925 60.6177,102.7285 60.5947,102.6895" id="Fill-13" fill="#D6CBC0"></path>
            <path d="M60.4877,102.5723 C60.4877,102.4353 60.5157,102.3673 60.5427,102.3003 C60.5017,102.3063 60.5667,102.6183 60.4877,102.5723" id="Fill-15" fill="#D6CBC0"></path>
            <path d="M60.6674,98.9962 C60.6654,98.9102 60.6304,98.7232 60.6844,98.6442 C60.6454,98.7332 60.7354,99.0642 60.6674,98.9962" id="Fill-17" fill="#D6CBC0"></path>
            <path d="M60.6387,97.3323 C60.6437,97.2783 60.6527,97.2573 60.6417,97.1943 C60.6657,97.0963 60.6977,97.2013 60.6997,97.2853 L60.6387,97.3323 Z" id="Fill-19" fill="#D6CBC0"></path>
            <polygon id="Fill-21" fill="#D6CBC0" points="49.0315 80.7543 48.9705 80.4803 49.0235 80.5293"></polygon>
            <path d="M50.2404,94.001 C50.2784,94.179 50.2024,94.128 50.1964,94.158 C50.1844,93.996 50.2574,94.215 50.2404,94.001" id="Fill-23" fill="#D6CBC0"></path>
            <polygon id="Fill-25" fill="#D6CBC0" points="50.6843 101.1544 50.6823 101.0994 50.7793 101.1174"></polygon>
            <path d="M36.8579,108.761 C41.3639,105.734 45.8709,111.923 50.6269,111.593 L50.6269,119.909 L36.8579,108.761 Z" id="Fill-27" fill="#7461A7"></path>
            <path d="M36.8579,108.761 C41.3639,105.734 45.8709,111.923 50.6269,111.593 L50.6269,119.909 L36.8579,108.761 L36.8579,108.761 Z" id="Stroke-29" stroke="#564C7F"></path>
            <path d="M6.7632,141.075 C6.6222,141.076 6.5312,140.929 6.6022,140.807 C7.8122,138.742 7.6732,125.994 14.3842,124.949 C26.2902,123.093 41.5522,120.915 46.0042,120.279 L63.4162,120.279 C67.4472,120.857 84.2022,122.693 95.4502,124.411 C103.3292,125.617 102.0762,137.473 103.1152,140.061 C103.2102,140.296 103.0322,140.545 102.7792,140.546 L6.7632,141.075 Z" id="Fill-31" fill="#7461A7"></path>
            <path d="M6.7632,141.075 C6.6222,141.076 6.5312,140.929 6.6022,140.807 C7.8122,138.742 7.6732,125.994 14.3842,124.949 C26.2902,123.093 41.5522,120.915 46.0042,120.279 L63.4162,120.279 C67.4472,120.857 84.2022,122.693 95.4502,124.411 C103.3292,125.617 102.0762,137.473 103.1152,140.061 C103.2102,140.296 103.0322,140.545 102.7792,140.546 L6.7632,141.075 L6.7632,141.075 Z" id="Stroke-33" stroke="#564C7F"></path>
            <path d="M74.0474,108.761 C69.5384,105.734 65.0314,110.923 60.2764,110.593 L60.2764,118.699 L74.0474,108.761 Z" id="Fill-35" fill="#7461A7"></path>
            <path d="M74.0474,108.761 C69.5384,105.734 65.0314,110.923 60.2764,110.593 L60.2764,118.699 L74.0474,108.761 L74.0474,108.761 Z" id="Stroke-37" stroke="#564C7F"></path>
            <g id="Group-42" transform="translate(55.000000, 108.575000)">
                <path d="M1.7329,20.0864 C5.4829,16.2504 15.4969,15.7074 17.4849,14.6914 C17.4229,11.2444 16.4169,4.0254 19.0479,0.1864 C12.4179,-0.3046 11.7149,6.6684 7.1329,6.6684 C7.1329,6.6684 4.6309,8.6954 0.6019,13.9614" id="Fill-39" fill="#7461A7"></path>
                <path d="M1.7329,20.0864 C5.4829,16.2504 15.4969,15.7074 17.4849,14.6914 C17.4229,11.2444 16.4169,4.0254 19.0479,0.1864 C12.4179,-0.3046 11.7149,6.6684 7.1329,6.6684 C7.1329,6.6684 4.6309,8.6954 0.6019,13.9614" id="Stroke-41" stroke="#564C7F"></path>
            </g>
            <g id="Group-46" transform="translate(36.000000, 108.575000)">
                <path d="M18.1694,20.0864 C14.4174,16.2504 4.2234,15.7074 2.2334,14.6914 C2.2904,11.2444 3.4874,4.0254 0.8574,0.1864 C7.4854,-0.3046 8.1894,8.0904 13.2304,9.4284 L17.2534,14.6914 C21.2794,19.9534 23.8754,20.3984 24.3384,29.2214" id="Fill-43" fill="#7461A7"></path>
                <path d="M18.1694,20.0864 C14.4174,16.2504 4.2234,15.7074 2.2334,14.6914 C2.2904,11.2444 3.4874,4.0254 0.8574,0.1864 C7.4854,-0.3046 8.1894,8.0904 13.2304,9.4284 L17.2534,14.6914 C21.2794,19.9534 23.8754,20.3984 24.3384,29.2214" id="Stroke-45" stroke="#564C7F"></path>
            </g>
            <path d="M56.5522,136.468 C55.7662,137.255 54.4882,137.255 53.7022,136.468 C52.9122,135.679 52.9122,134.402 53.7022,133.614 C54.4882,132.827 55.7662,132.827 56.5522,133.614 C57.3402,134.402 57.3402,135.679 56.5522,136.468" id="Fill-47" fill="#7461A7"></path>
            <path d="M56.5522,136.468 C55.7662,137.255 54.4882,137.255 53.7022,136.468 C52.9122,135.679 52.9122,134.402 53.7022,133.614 C54.4882,132.827 55.7662,132.827 56.5522,133.614 C57.3402,134.402 57.3402,135.679 56.5522,136.468 L56.5522,136.468 Z" id="Stroke-49" stroke="#564C7F"></path>
            <g id="Group-54" transform="translate(41.000000, 115.575000)">
                <path d="M0.7065,0.7465 C1.5155,2.3615 1.3775,6.8635 0.3635,9.8445" id="Fill-51" fill="#7461A7"></path>
                <path d="M0.7065,0.7465 C1.5155,2.3615 1.3775,6.8635 0.3635,9.8445" id="Stroke-53" stroke="#564C7F"></path>
            </g>
            <g id="Group-58" transform="translate(44.000000, 117.575000)">
                <path d="M0.9858,0.2817 C1.4538,2.3347 1.2698,6.4007 0.2558,9.3817" id="Fill-55" fill="#7461A7"></path>
                <path d="M0.9858,0.2817 C1.4538,2.3347 1.2698,6.4007 0.2558,9.3817" id="Stroke-57" stroke="#564C7F"></path>
            </g>
            <g id="Group-62" transform="translate(47.000000, 119.575000)">
                <path d="M0.7456,0.3344 C1.5546,1.9494 1.0886,3.6934 0.7456,6.6054" id="Fill-59" fill="#7461A7"></path>
                <path d="M0.7456,0.3344 C1.5546,1.9494 1.0886,3.6934 0.7456,6.6054" id="Stroke-61" stroke="#564C7F"></path>
            </g>
            <g id="Group-66" transform="translate(69.000000, 114.575000)">
                <path d="M0.4526,0.2641 C0.1126,2.0881 -0.2304,8.3581 0.4526,10.1801" id="Fill-63" fill="#7461A7"></path>
                <path d="M0.4526,0.2641 C0.1126,2.0881 -0.2304,8.3581 0.4526,10.1801" id="Stroke-65" stroke="#564C7F"></path>
            </g>
            <g id="Group-70" transform="translate(65.000000, 117.575000)">
                <path d="M1.2036,0.2817 C0.1776,3.3027 1.5606,5.5087 1.9006,7.1797" id="Fill-67" fill="#7461A7"></path>
                <path d="M1.2036,0.2817 C0.1776,3.3027 1.5606,5.5087 1.9006,7.1797" id="Stroke-69" stroke="#564C7F"></path>
            </g>
            <g id="Group-74" transform="translate(63.000000, 118.575000)">
                <path d="M0.2202,0.1235 C0.9282,2.2345 -0.4918,5.6765 0.8472,9.3285" id="Fill-71" fill="#7461A7"></path>
                <path d="M0.2202,0.1235 C0.9282,2.2345 -0.4918,5.6765 0.8472,9.3285" id="Stroke-73" stroke="#564C7F"></path>
            </g>
            <g id="Group-78" transform="translate(60.000000, 120.575000)">
                <path d="M0.5884,0.0219 C0.7024,0.9459 -0.6116,5.2209 0.5804,7.3289" id="Fill-75" fill="#7461A7"></path>
                <path d="M0.5884,0.0219 C0.7024,0.9459 -0.6116,5.2209 0.5804,7.3289" id="Stroke-77" stroke="#564C7F"></path>
            </g>
            <path d="M54.9401,109.4681 C54.9141,109.4291 54.8451,109.4891 54.8971,109.4421 C54.9411,109.4481 54.9741,109.4551 54.9401,109.4681" id="Fill-79" fill="#D6CBC0"></path>
            <path d="M54.921,118.7372 C54.725,118.4952 55.058,118.4772 54.964,118.2702 C54.961,118.2502 55.098,118.3482 55.083,118.2972 C54.954,118.0742 55.175,117.9482 55.403,117.8922 L55.436,117.9232 C55.479,117.9122 55.374,117.8062 55.408,117.7882 C55.433,117.8022 55.438,117.8182 55.476,117.8312 C55.405,117.7802 55.472,117.7602 55.423,117.7142 C55.459,117.7212 55.518,117.7572 55.56,117.7622 L55.484,117.6952 C55.307,117.5272 55.564,117.5942 55.497,117.4692 C55.515,117.4842 55.526,117.4992 55.549,117.5062 C55.486,117.3322 55.587,117.2222 55.614,117.0852 C55.64,117.1082 55.692,117.1472 55.729,117.1632 C55.644,117.1002 55.644,117.0522 55.646,117.0112 C55.745,117.0572 55.595,116.9062 55.669,116.9052 L55.687,116.9212 C55.61,116.8332 55.766,116.9202 55.667,116.8242 L55.749,116.8562 C55.63,116.7592 55.839,116.8632 55.789,116.8002 L55.763,116.7822 C55.745,116.7422 55.815,116.7752 55.806,116.7422 L55.822,116.7502 C55.818,116.6852 55.904,116.7092 55.806,116.6422 C55.894,116.6812 55.814,116.7082 55.943,116.7632 C55.94,116.5562 56.06,116.4262 56.161,116.2902 C56.211,116.3032 56.23,116.3022 56.268,116.3262 C56.26,116.2982 56.29,116.2622 56.251,116.2132 C56.249,116.2192 56.306,116.2412 56.316,116.2372 C56.37,116.2402 56.233,116.1312 56.295,116.1362 C56.312,116.1662 56.34,116.1942 56.377,116.2172 C56.322,116.1382 56.356,116.1152 56.354,116.0702 C56.367,116.0872 56.371,116.1002 56.401,116.1222 C56.342,116.0282 56.461,116.0842 56.43,116.0172 L56.476,116.0692 C56.574,116.0812 56.374,115.9672 56.441,115.9632 C56.451,115.9852 56.474,115.9992 56.494,116.0182 C56.424,115.9062 56.5,115.8792 56.494,115.8192 C56.5,115.8272 56.515,115.8382 56.515,115.8382 C56.532,115.7912 56.594,115.7782 56.578,115.7152 C56.614,115.7202 56.712,115.8162 56.724,115.7642 C56.605,115.6902 56.726,115.6762 56.569,115.6182 C56.61,115.6062 56.697,115.5852 56.666,115.5492 C56.707,115.5822 56.847,115.5982 56.837,115.6282 L56.94,115.6382 C56.995,115.6632 56.901,115.6542 56.979,115.6742 C56.989,115.6562 56.968,115.5942 57.004,115.5892 C56.938,115.5342 56.783,115.4742 56.79,115.4422 C56.838,115.4692 56.974,115.4632 56.993,115.4792 C56.996,115.4742 56.727,115.3832 56.722,115.3882 C56.722,115.3782 56.857,115.4012 56.827,115.3822 C56.78,115.3782 56.758,115.3692 56.725,115.3632 C56.749,115.3602 56.713,115.3272 56.897,115.3262 C56.972,115.3232 56.918,115.3452 56.993,115.3342 C57.011,115.3132 56.95,115.3122 56.966,115.2922 L56.991,115.2912 C57.007,115.2772 56.876,115.2582 56.79,115.2752 C56.791,115.2832 56.897,115.2682 56.855,115.2812 C56.74,115.2772 56.695,115.2622 56.679,115.2482 C56.709,115.2482 56.758,115.2462 56.81,115.2452 C56.649,115.2342 56.59,115.2222 56.52,115.2142 C56.443,115.2272 56.665,115.1952 56.629,115.2062 C56.701,115.1542 56.433,115.1892 56.554,115.1262 C56.57,115.1262 56.46,115.1602 56.479,115.1542 C56.477,115.1402 56.572,115.1042 56.528,115.1092 C56.583,115.0862 56.5,115.1052 56.476,115.1042 C56.434,115.1182 56.5,115.0902 56.513,115.0952 C56.452,115.0992 56.342,115.1072 56.385,115.0362 C56.355,115.0582 56.268,115.1002 56.268,115.1002 L56.334,115.0462 C56.371,115.0122 56.309,115.0292 56.357,114.9752 C56.27,115.0332 56.48,114.9792 56.4,115.0092 C56.448,114.9572 56.276,115.0752 56.366,115.0022 C56.348,114.9872 56.254,115.0262 56.294,114.9522 C56.29,114.9672 56.397,114.8902 56.376,114.8762 C56.336,114.8552 56.338,114.8952 56.293,114.8882 L56.253,114.8952 C56.191,114.9492 56.234,114.8592 56.177,114.9332 C56.224,114.8832 56.102,114.9142 56.208,114.8262 L56.292,114.7582 C56.274,114.7502 56.187,114.8112 56.142,114.8312 C56.148,114.8222 56.161,114.8042 56.175,114.7942 C56.049,114.9002 56.155,114.7502 56.044,114.8172 C56.062,114.7492 55.982,114.7362 56.048,114.6552 C55.99,114.6642 55.926,114.6812 55.93,114.6312 C55.947,114.6272 55.957,114.6312 55.985,114.6102 C56.008,114.5622 55.971,114.5862 55.938,114.5872 C55.96,114.5752 55.986,114.4912 56.017,114.4362 C55.96,114.4432 55.896,114.5062 55.852,114.5382 C55.962,114.4152 55.715,114.5342 55.81,114.4162 C55.834,114.4102 55.901,114.4022 55.918,114.3572 C56.029,114.2362 55.788,114.3862 55.822,114.3032 L55.721,114.3932 C55.775,114.3272 55.617,114.3872 55.731,114.3082 C55.683,114.3252 55.736,114.2382 55.632,114.3202 C55.68,114.1942 55.471,114.2072 55.639,114.0362 C55.615,114.0402 55.618,114.0062 55.565,114.0482 C55.515,114.1042 55.623,114.0392 55.585,114.0722 C55.576,114.0672 55.545,114.0852 55.53,114.0952 C55.541,114.0592 55.539,114.0392 55.642,113.9952 C55.681,113.9092 55.426,114.0762 55.433,113.9912 C55.481,113.9642 55.495,113.9482 55.478,113.9362 L55.38,113.9552 C55.375,113.9072 55.472,113.8692 55.549,113.8182 C55.524,113.8082 55.514,113.7822 55.449,113.8102 L55.534,113.7262 C55.473,113.7862 55.477,113.7392 55.452,113.7422 L55.477,113.7392 C55.508,113.7162 55.474,113.7062 55.457,113.7012 C55.409,113.7332 55.403,113.7672 55.397,113.7882 C55.356,113.8002 55.355,113.7792 55.305,113.7912 C55.386,113.7482 55.341,113.7262 55.34,113.7062 C55.346,113.6782 55.258,113.7262 55.257,113.7192 C55.298,113.6952 55.248,113.6852 55.313,113.6672 C55.329,113.6652 55.281,113.7042 55.322,113.6942 C55.346,113.6642 55.418,113.6242 55.353,113.6292 C55.303,113.6332 55.2,113.7232 55.23,113.6592 C55.255,113.6572 55.287,113.6412 55.319,113.6322 L55.342,113.5762 L55.27,113.6152 C55.285,113.6002 55.293,113.6002 55.302,113.5922 C55.221,113.6242 55.251,113.5542 55.161,113.5932 C55.144,113.5802 55.192,113.5302 55.191,113.5092 L55.199,113.5092 C55.231,113.4662 55.189,113.4552 55.131,113.4642 L55.147,113.4572 C55.147,113.4432 55.122,113.4232 55.071,113.4322 C55.112,113.3762 55.344,113.2822 55.236,113.2992 C55.221,113.2722 55.08,113.3212 55.038,113.3562 C55.064,113.2802 54.915,113.2792 55.009,113.1762 C54.975,113.1832 54.958,113.1962 54.933,113.1892 C54.929,113.1002 54.766,113.0652 54.895,112.9402 C54.935,112.9492 54.971,112.9102 55.015,112.8922 C54.939,112.9022 55.077,112.8412 54.957,112.8822 C54.889,112.9122 54.855,112.9242 54.835,112.9572 C54.78,112.9262 54.752,112.8542 54.807,112.8032 C54.78,112.8282 54.755,112.8262 54.73,112.8242 C54.842,112.7852 54.846,112.7452 54.797,112.7332 L54.728,112.7552 L54.791,112.7122 C54.765,112.7102 54.644,112.7532 54.699,112.7032 C54.725,112.6932 54.751,112.6812 54.769,112.6702 C54.703,112.6632 54.593,112.6582 54.642,112.6072 L54.735,112.5492 C54.72,112.5402 54.652,112.5392 54.631,112.5712 C54.675,112.4992 54.672,112.4642 54.754,112.4202 C54.516,112.4022 54.462,112.2722 54.451,112.1642 L54.504,112.1532 C54.547,112.1122 54.409,112.1642 54.441,112.1342 C54.493,112.1302 54.544,112.0842 54.611,112.0892 C54.657,112.0352 54.507,112.0632 54.477,112.0432 C54.407,112.0572 54.526,112.0522 54.438,112.0702 C54.412,112.0722 54.478,112.0012 54.372,112.0212 C54.41,112.0012 54.489,111.9892 54.533,111.9842 L54.476,111.9722 C54.592,111.9132 54.711,111.9842 54.854,111.9152 L54.832,111.8982 C54.937,111.8512 54.97,111.9232 54.994,111.8602 C54.937,111.8512 54.78,111.8682 54.739,111.9002 C54.698,111.8582 54.484,111.9392 54.479,111.8822 C54.537,111.8532 54.504,111.9222 54.588,111.8912 C54.667,111.8452 54.529,111.8512 54.553,111.8212 C54.519,111.8562 54.408,111.8592 54.385,111.8472 C54.427,111.8082 54.489,111.8422 54.49,111.8012 C54.427,111.8082 54.373,111.7822 54.338,111.8232 C54.197,111.8392 54.366,111.7732 54.254,111.7742 C54.348,111.7412 54.489,111.7662 54.527,111.7132 C54.434,111.7402 54.388,111.6872 54.254,111.7392 C54.277,111.7162 54.351,111.6992 54.411,111.6992 C54.464,111.6632 54.229,111.6752 54.413,111.6292 L54.316,111.6402 C54.345,111.6252 54.367,111.6132 54.416,111.5882 C54.414,111.5662 54.274,111.5442 54.419,111.5182 C54.403,111.5142 54.401,111.4642 54.303,111.5012 C54.248,111.5442 54.383,111.5232 54.251,111.5662 C54.357,111.5232 54.228,111.5242 54.188,111.5132 L54.243,111.5002 C54.22,111.4932 54.227,111.4662 54.165,111.4712 C54.199,111.4732 54.237,111.4622 54.249,111.4512 L54.161,111.4552 C54.11,111.4192 54.31,111.4182 54.277,111.3812 L54.349,111.4012 C54.334,111.3962 54.411,111.3682 54.381,111.3532 C54.301,111.3572 54.205,111.3612 54.143,111.3642 C54.104,111.3452 54.229,111.3382 54.145,111.3282 L54.244,111.3432 C54.271,111.3432 54.37,111.3012 54.362,111.2702 C54.332,111.2552 54.213,111.2422 54.176,111.2802 C54.171,111.2642 54.215,111.2352 54.275,111.2392 C54.241,111.2072 54.191,111.2562 54.137,111.2332 C54.187,111.2062 54.258,111.1672 54.33,111.1272 L54.466,111.1392 L54.464,111.1182 C54.573,111.1302 54.543,111.0932 54.656,111.0922 C54.671,111.0752 54.631,111.0642 54.601,111.0542 C54.428,111.1212 54.352,111.0422 54.191,111.0762 C54.139,111.0232 54.581,110.9872 54.32,110.9602 C54.278,110.9752 54.151,110.9632 54.203,110.9932 C54.216,110.9552 54.036,110.9892 54.098,110.9372 C54.169,110.9612 54.259,110.8832 54.362,110.9172 C54.307,110.9202 54.324,110.9472 54.34,110.9522 C54.4,110.9302 54.504,110.9342 54.499,110.8982 C54.481,110.8782 54.474,110.8482 54.39,110.8622 C54.297,110.8752 54.404,110.8952 54.308,110.8932 C54.27,110.8512 54.411,110.8282 54.244,110.8282 C54.26,110.8552 54.165,110.8732 54.101,110.8802 L54.058,110.8512 L54.12,110.8512 C54.158,110.7922 54.006,110.8482 54.016,110.7932 L54.136,110.7552 C54.243,110.7562 54.098,110.8362 54.269,110.8082 C54.272,110.7742 54.183,110.7722 54.223,110.7362 C54.239,110.7442 54.244,110.7472 54.26,110.7552 C54.265,110.7432 54.491,110.7072 54.352,110.6742 C54.297,110.6552 54.29,110.6742 54.225,110.6792 C54.2,110.6282 54.135,110.6182 54.122,110.5842 C54.248,110.5802 54.129,110.5222 54.261,110.5482 C54.189,110.5722 54.201,110.6502 54.323,110.6572 C54.469,110.6232 54.307,110.7012 54.459,110.6962 C54.457,110.6542 54.604,110.6412 54.699,110.6252 C54.704,110.6132 54.663,110.6062 54.648,110.6012 C54.557,110.6042 54.559,110.6192 54.466,110.6292 C54.488,110.5802 54.434,110.5402 54.344,110.5212 C54.388,110.5022 54.478,110.4992 54.488,110.5172 C54.457,110.4632 54.465,110.4022 54.489,110.3472 C54.344,110.3932 54.45,110.2912 54.329,110.3232 C54.298,110.3542 54.194,110.3862 54.127,110.3752 C54.135,110.3562 54.192,110.3712 54.223,110.3612 C54.14,110.3442 54.349,110.3162 54.221,110.3032 C54.272,110.3512 54.401,110.3002 54.518,110.3022 C54.45,110.2702 54.6,110.2982 54.598,110.2622 C54.531,110.2302 54.477,110.1882 54.449,110.1492 C54.554,110.0922 54.443,110.0202 54.438,109.9742 C54.496,109.9482 54.628,109.9592 54.65,109.9322 C54.647,109.9032 54.509,109.9602 54.568,109.9132 L54.594,109.9172 C54.563,109.9042 54.681,109.8332 54.493,109.8252 L54.635,109.8342 C54.648,109.8262 54.615,109.8192 54.6,109.8132 C54.646,109.8112 54.688,109.8002 54.719,109.8132 C54.816,109.7832 54.702,109.7562 54.697,109.7272 L54.614,109.7482 C54.546,109.6982 54.629,109.6622 54.598,109.6132 L54.681,109.6142 L54.631,109.5852 C54.711,109.5912 54.762,109.5642 54.695,109.5502 L54.898,109.6222 C54.85,109.6442 54.798,109.6012 54.717,109.6152 C54.647,109.6272 54.67,109.6732 54.749,109.6782 C54.758,109.6612 54.74,109.6602 54.71,109.6482 C54.824,109.6402 54.82,109.6662 54.897,109.6782 C54.892,109.6692 54.927,109.6552 54.89,109.6542 C54.947,109.6712 54.956,109.6882 54.959,109.7172 C54.914,109.6992 54.889,109.7302 54.856,109.7232 C54.957,109.7232 54.988,109.7502 54.961,109.7872 C54.845,109.8162 55.037,109.8522 55.006,109.8942 C54.904,109.8812 54.821,109.8622 54.78,109.8382 C54.729,109.8662 54.783,109.8672 54.732,109.8962 C54.808,109.9062 54.925,109.9112 54.972,109.9432 L54.897,109.9482 C54.936,109.9772 55.048,109.9732 55.028,110.0132 C54.993,110.0822 55,110.1512 54.994,110.2022 L54.919,110.2092 C55.081,110.2272 54.985,110.3002 55.059,110.3332 C54.991,110.4042 55.141,110.4682 55.014,110.5132 C55.078,110.6232 55.152,110.7142 55.138,110.8352 L55.027,110.8292 C55.109,110.8402 54.966,110.8502 54.984,110.8692 C55.068,110.8342 55.101,110.8842 55.169,110.8892 C55.091,110.9532 55.191,111.0082 55.273,111.0412 L55.199,111.0552 C55.345,111.0792 55.234,111.1522 55.221,111.2142 C55.192,111.2262 55.124,111.2482 55.135,111.2642 C55.261,111.2742 55.255,111.2922 55.338,111.3232 C55.344,111.3562 55.324,111.4152 55.284,111.4582 C55.473,111.5472 55.403,111.6922 55.531,111.7932 L55.448,111.8242 C55.656,111.8982 55.544,112.0862 55.666,112.1592 L55.519,112.1962 C55.484,112.2432 55.579,112.2572 55.678,112.2142 C55.644,112.2612 55.772,112.2682 55.663,112.3292 C55.649,112.3702 55.744,112.3442 55.773,112.3622 C55.743,112.4442 55.765,112.4642 55.813,112.5122 L55.817,112.4942 C55.783,112.5002 55.723,112.5232 55.72,112.5412 C55.767,112.5482 55.714,112.6382 55.872,112.5472 C55.798,112.6522 56.013,112.6542 55.91,112.7712 C55.953,112.7462 55.968,112.7572 56.001,112.7492 C56.027,112.8002 55.962,112.9002 56.057,112.9052 C56.04,112.9242 55.975,112.9292 55.982,112.9532 C56.006,112.9562 56.04,112.9242 56.073,112.9262 C56.199,112.9652 56.079,113.1382 56.142,113.2042 C56.305,113.2852 56.341,113.4472 56.443,113.5572 L56.412,113.5762 C56.553,113.5362 56.364,113.7542 56.555,113.6632 C56.534,113.6932 56.567,113.7092 56.506,113.7442 C56.608,113.7162 56.502,113.8882 56.636,113.8572 C56.635,113.8512 56.628,113.8532 56.611,113.8582 C56.585,113.9532 56.701,113.9252 56.684,114.0192 C56.668,114.0242 56.652,114.0232 56.623,114.0442 C56.585,114.1072 56.778,113.9902 56.652,114.1122 C56.662,114.1222 56.726,114.0632 56.716,114.0602 C56.753,114.2082 56.933,114.2472 57.061,114.3232 C57.092,114.5102 56.842,114.5212 57.033,114.5342 C57.014,114.5622 57.092,114.4992 57.065,114.5222 C57.144,114.5342 56.958,114.6922 57.06,114.6642 C57.143,114.5962 57.129,114.6492 57.187,114.6152 C57.204,114.7312 57.118,114.7832 57.256,114.8052 L57.195,114.8242 C57.425,114.8282 57.413,114.9382 57.689,114.9522 C57.813,115.0582 57.939,115.1662 58.067,115.2752 C57.807,115.6052 57.548,115.9722 57.237,116.3392 C57.009,116.5602 56.894,116.8382 56.633,117.0412 C56.469,117.0152 56.468,117.0222 56.471,117.1242 C56.453,117.1072 56.452,117.1002 56.43,117.0922 C56.528,117.1642 56.407,117.1462 56.499,117.2182 C56.414,117.3032 56.38,117.4092 56.316,117.5122 C56.316,117.4892 56.238,117.4262 56.232,117.4502 L56.284,117.5122 L56.254,117.4972 C56.26,117.5202 56.301,117.5672 56.343,117.5752 C56.268,117.8832 55.905,118.0112 55.782,118.2882 C55.702,118.3252 55.693,118.4362 55.678,118.5162 C55.427,118.6352 55.208,118.7702 55.214,119.0182 C55.214,119.0182 54.941,118.8602 54.921,118.7372" id="Fill-81" fill="#D6CBC0"></path>
            <path d="M54.9532,109.515 C54.8922,109.524 54.8602,109.551 54.7782,109.53 C54.8352,109.527 54.8992,109.512 54.9532,109.515" id="Fill-83" fill="#D6CBC0"></path>
            <path d="M54.3553,110.283 C54.3733,110.283 54.3313,110.296 54.3213,110.299 C54.3163,110.289 54.2643,110.284 54.2953,110.274 C54.3013,110.284 54.3293,110.28 54.3553,110.283" id="Fill-85" fill="#D6CBC0"></path>
            <path d="M54.3331,110.4818 C54.2791,110.4838 54.2331,110.4448 54.2251,110.4198 L54.3331,110.4818 Z" id="Fill-87" fill="#D6CBC0"></path>
            <path d="M54.125,110.687 C54.082,110.708 54.056,110.706 54.055,110.684 C54.083,110.679 54.098,110.685 54.125,110.687" id="Fill-89" fill="#D6CBC0"></path>
            <path d="M54.2493,110.688 C54.2523,110.703 54.2213,110.714 54.1923,110.725 C54.2383,110.719 54.1583,110.692 54.2493,110.688" id="Fill-91" fill="#D6CBC0"></path>
            <path d="M54.1436,111.1118 C54.1486,111.1208 54.1966,111.1358 54.1376,111.1538 C54.1786,111.1378 54.0636,111.1158 54.1436,111.1118" id="Fill-93" fill="#D6CBC0"></path>
            <path d="M54.2522,111.2885 C54.2502,111.2955 54.2402,111.2995 54.2562,111.3035 C54.2342,111.3195 54.1932,111.3135 54.1862,111.3045 L54.2522,111.2885 Z" id="Fill-95" fill="#D6CBC0"></path>
            <polygon id="Fill-97" fill="#D6CBC0" points="55.7726 114.3962 55.7386 114.3962 55.7836 114.3662"></polygon>
            <path d="M56.5344,115.2548 C56.5854,115.2578 56.4744,115.2658 56.4654,115.2678 C56.4524,115.2628 56.5524,115.2618 56.5344,115.2548" id="Fill-99" fill="#D6CBC0"></path>
            <polygon id="Fill-101" fill="#D6CBC0" points="56.5872 115.6862 56.5892 115.6812 56.6822 115.7432"></polygon>
            <path d="M96.2168,66.094 C96.2168,61.483 99.0008,57.745 102.4308,57.745 C105.8638,57.745 108.6468,61.483 108.6468,66.094 C108.6468,70.703 105.8638,74.441 102.4308,74.441 C99.0008,74.441 96.2168,70.703 96.2168,66.094" id="Fill-103" fill="#F1E5E1"></path>
            <path d="M96.2168,66.094 C96.2168,61.483 99.0008,57.745 102.4308,57.745 C105.8638,57.745 108.6468,61.483 108.6468,66.094 C108.6468,70.703 105.8638,74.441 102.4308,74.441 C99.0008,74.441 96.2168,70.703 96.2168,66.094 L96.2168,66.094 Z" id="Stroke-105" stroke="#D6CBC0"></path>
            <path d="M12.9297,66.092 C12.9297,70.703 10.1457,74.441 6.7157,74.441 C3.2827,74.441 0.4997,70.703 0.4997,66.092 C0.4997,61.483 3.2827,57.745 6.7157,57.745 C10.1457,57.745 12.9297,61.483 12.9297,66.092" id="Fill-107" fill="#F1E5E1"></path>
            <path d="M12.9297,66.092 C12.9297,70.703 10.1457,74.441 6.7157,74.441 C3.2827,74.441 0.4997,70.703 0.4997,66.092 C0.4997,61.483 3.2827,57.745 6.7157,57.745 C10.1457,57.745 12.9297,61.483 12.9297,66.092 L12.9297,66.092 Z" id="Stroke-109" stroke="#D6CBC0"></path>
            <path d="M98.5381,63.4963 C98.5381,89.1093 78.8531,109.8723 54.5751,109.8723 C30.2931,109.8723 10.6081,89.1093 10.6081,63.4963 C10.6081,37.8863 30.2931,17.1213 54.5751,17.1213 C78.8531,17.1213 98.5381,37.8863 98.5381,63.4963" id="Fill-111" fill="#F1E5E1"></path>
            <path d="M98.5381,63.4963 C98.5381,89.1093 78.8531,109.8723 54.5751,109.8723 C30.2931,109.8723 10.6081,89.1093 10.6081,63.4963 C10.6081,37.8863 30.2931,17.1213 54.5751,17.1213 C78.8531,17.1213 98.5381,37.8863 98.5381,63.4963 L98.5381,63.4963 Z" id="Stroke-113" stroke="#D6CBC0"></path>
            <path d="M10.5303,69.6741 C10.5303,69.6741 23.8783,84.9211 31.4663,84.9211 C35.1803,84.9211 44.6513,80.8171 54.9563,80.8171 C65.2583,80.8171 74.1613,84.9211 78.4423,84.9211 C87.3233,84.9261 97.9513,69.6741 97.9513,69.6741 C97.9513,80.7481 85.4563,110.3391 54.1163,110.3391 C22.7763,110.3391 10.5303,78.6241 10.5303,69.6741" id="Fill-115" fill="#D7BCB3"></path>
            <path d="M52.9824,64.012 C59.3594,72.669 60.0404,74.491 53.8924,77.223" id="Stroke-117" stroke="#D6CBC0" stroke-width="0.626"></path>
            <path d="M67.6182,86.6916 C67.6182,93.3476 62.2222,98.7436 55.5662,98.7436 C48.9112,98.7436 43.5142,93.3476 43.5142,86.6916 L67.6182,86.6916 Z" id="Fill-119" fill="#F1E5E1"></path>
            <path d="M67.6182,86.6916 C67.6182,93.3476 62.2222,98.7436 55.5662,98.7436 C48.9112,98.7436 43.5142,93.3476 43.5142,86.6916 L67.6182,86.6916 L67.6182,86.6916 Z" id="Stroke-121" stroke="#F0E4E0" stroke-width="4"></path>
            <path d="M67.6182,86.6916 C67.6182,93.3476 62.2222,98.7436 55.5662,98.7436 C48.9112,98.7436 43.5142,93.3476 43.5142,86.6916 L67.6182,86.6916 Z" id="Fill-123" fill="#4A5254"></path>
            <path d="M67.6182,86.6916 C67.6182,93.3476 62.2222,98.7436 55.5662,98.7436 C48.9112,98.7436 43.5142,93.3476 43.5142,86.6916 L67.6182,86.6916 L67.6182,86.6916 Z" id="Stroke-125" stroke="#4A5154" stroke-width="0.223"></path>
            <path d="M43.8882,86.7356 C43.8882,88.5056 44.2722,89.8146 44.9572,91.3286 C48.4172,91.7026 51.7372,91.9046 55.5662,91.9046 C59.3972,91.9046 62.7152,91.7026 66.1752,91.3286 C66.8622,89.8146 67.2472,88.5056 67.2472,86.7356 L43.8882,86.7356 Z" id="Fill-127" fill="#F0F2F2"></path>
            <path d="M43.8882,86.7356 C43.8882,88.5056 44.2722,89.8146 44.9572,91.3286 C48.4172,91.7026 51.7372,91.9046 55.5662,91.9046 C59.3972,91.9046 62.7152,91.7026 66.1752,91.3286 C66.8622,89.8146 67.2472,88.5056 67.2472,86.7356 L43.8882,86.7356 L43.8882,86.7356 Z" id="Stroke-129" stroke="#4A5154" stroke-width="0.371"></path>
            <path d="M22.4018,37.1565 C20.0428,43.9405 15.5538,45.6895 10.2568,59.3655 C10.2788,47.7765 5.8478,35.8555 7.4768,28.8025 C9.1068,21.7515 14.0308,19.5385 19.1618,20.8585 C24.2958,22.1805 25.2628,28.9335 22.4018,37.1565" id="Fill-131" fill="#E4C150"></path>
            <path d="M22.4018,37.1565 C20.0428,43.9405 15.5538,45.6895 10.2568,59.3655 C10.2788,47.7765 5.8478,35.8555 7.4768,28.8025 C9.1068,21.7515 14.0308,19.5385 19.1618,20.8585 C24.2958,22.1805 25.2628,28.9335 22.4018,37.1565 L22.4018,37.1565 Z" id="Stroke-133" stroke="#CEAA45"></path>
            <path d="M84.1836,36.6262 C85.8126,43.6772 93.5836,49.1442 98.9166,59.3652 C98.8946,47.7762 103.3266,35.8552 101.6946,28.8022 C100.0636,21.7512 95.1416,19.5382 90.0106,20.8582 C84.8776,22.1812 82.5536,29.5752 84.1836,36.6262" id="Fill-135" fill="#E4C150"></path>
            <path d="M84.1836,36.6262 C85.8126,43.6772 93.5836,49.1442 98.9166,59.3652 C98.8946,47.7762 103.3266,35.8552 101.6946,28.8022 C100.0636,21.7512 95.1416,19.5382 90.0106,20.8582 C84.8776,22.1812 82.5536,29.5752 84.1836,36.6262 L84.1836,36.6262 Z" id="Stroke-137" stroke="#CEAA45"></path>
            <path d="M23.9888,30.1858 C15.5538,14.5228 25.4918,-1.7622 54.5748,8.8968 C62.6198,11.8448 85.3228,21.1168 81.6568,3.7648 C98.5378,20.4968 85.3048,36.1218 72.6438,30.1858 C48.3888,18.8158 39.2348,22.2758 23.9888,30.1858" id="Fill-139" fill="#E4C150"></path>
            <path d="M23.9888,30.1858 C15.5538,14.5228 25.4918,-1.7622 54.5748,8.8968 C62.6198,11.8448 85.3228,21.1168 81.6568,3.7648 C98.5378,20.4968 85.3048,36.1218 72.6438,30.1858 C48.3888,18.8158 39.2348,22.2758 23.9888,30.1858 L23.9888,30.1858 Z" id="Stroke-141" stroke="#CEAA45"></path>
            <g id="Group-146" transform="translate(58.000000, 47.575000)">
                <path d="M0.9058,0.6362 L2.7898,6.2902" id="Fill-143" fill="#C1A99F"></path>
                <path d="M0.9058,0.6362 L2.7898,6.2902" id="Stroke-145" stroke="#C1A99F"></path>
            </g>
            <polygon id="Fill-147" fill="#C1A99F" points="74.6904 50.2102 59.3984 49.7912 60.8664 53.6092 71.9184 53.4002 79.0884 55.4452"></polygon>
            <polygon id="Stroke-149" stroke="#C1A99F" stroke-width="0.394" points="74.6904 50.2102 59.3984 49.7912 60.8664 53.6092 71.9184 53.4002 79.0884 55.4452"></polygon>
            <g id="Group-154" transform="translate(48.000000, 47.575000)">
                <path d="M2.4272,0.6362 L0.5422,6.2902" id="Fill-151" fill="#C1A99F"></path>
                <path d="M2.4272,0.6362 L0.5422,6.2902" id="Stroke-153" stroke="#C1A99F"></path>
            </g>
            <g id="Group-158" transform="translate(46.000000, 48.575000)">
                <path d="M2.5732,0.0073 L0.6892,5.6613" id="Fill-155" fill="#C1A99F"></path>
                <path d="M2.5732,0.0073 L0.6892,5.6613" id="Stroke-157" stroke="#C1A99F"></path>
            </g>
            <polygon id="Fill-159" fill="#C1A99F" points="34.271 50.2102 49.561 49.7912 48.095 53.6092 36.669 53.4002 29.875 55.4452"></polygon>
            <polygon id="Stroke-161" stroke="#C1A99F" points="34.271 50.2102 49.561 49.7912 48.095 53.6092 36.669 53.4002 29.875 55.4452"></polygon>
            <path d="M89.8467,3.4416 C98.1247,15.6596 86.8867,26.9246 79.0877,25.8066" id="Stroke-163" stroke="#CEAA45"></path>
            <path d="M85.9199,0.2805 C94.2009,12.4985 84.7149,18.7295 79.0879,19.9275" id="Stroke-165" stroke="#CEAA45"></path>
            <path d="M10.7036,14.7121 C13.9566,15.2761 18.3406,17.4821 20.1156,25.1431" id="Stroke-167" stroke="#CEAA45"></path>
            <path d="M19.2568,9.2209 C18.3208,12.0369 17.5368,15.9399 19.7288,24.2879" id="Stroke-169" stroke="#CEAA45"></path>
            <path d="M103.9243,64.47 C103.2183,65.779 101.7303,67.349 98.6103,67.082" id="Stroke-171" stroke="#D6CBC0"></path>
            <path d="M5.1138,64.47 C5.8188,65.779 7.3078,67.349 10.4258,67.082" id="Stroke-173" stroke="#D6CBC0"></path>
            <path d="M45.3442,64.2385 C45.3442,65.8775 44.0152,67.2075 42.3762,67.2075 C40.7372,67.2075 39.4082,65.8775 39.4082,64.2385 C39.4082,62.5995 40.7372,61.2715 42.3762,61.2715 C44.0152,61.2715 45.3442,62.5995 45.3442,64.2385" id="Fill-175" fill="#27799A"></path>
            <path d="M45.3442,64.2385 C45.3442,65.8775 44.0152,67.2075 42.3762,67.2075 C40.7372,67.2075 39.4082,65.8775 39.4082,64.2385 C39.4082,62.5995 40.7372,61.2715 42.3762,61.2715 C44.0152,61.2715 45.3442,62.5995 45.3442,64.2385 L45.3442,64.2385 Z" id="Stroke-177" stroke="#26799A"></path>
            <path d="M69.8442,64.2385 C69.8442,65.8775 68.5152,67.2075 66.8762,67.2075 C65.2372,67.2075 63.9082,65.8775 63.9082,64.2385 C63.9082,62.5995 65.2372,61.2715 66.8762,61.2715 C68.5152,61.2715 69.8442,62.5995 69.8442,64.2385" id="Fill-179" fill="#27799A"></path>
            <path d="M69.8442,64.2385 C69.8442,65.8775 68.5152,67.2075 66.8762,67.2075 C65.2372,67.2075 63.9082,65.8775 63.9082,64.2385 C63.9082,62.5995 65.2372,61.2715 66.8762,61.2715 C68.5152,61.2715 69.8442,62.5995 69.8442,64.2385 L69.8442,64.2385 Z" id="Stroke-181" stroke="#26799A"></path>
        </g>
    </g>
</svg>